<svg version="1.0" xmlns="http://www.w3.org/2000/svg"
 width="778.000000pt" height="496.000000pt" viewBox="0 0 778.000000 496.000000"
 preserveAspectRatio="xMidYMid meet">
  <g transform="translate(0.000000,496.000000) scale(0.100000,-0.100000)"
  fill="#000000" stroke="none">
    <path d="M3642 2787 l-172 -100 2 -215 3 -214 180 -104 179 -103 66 36 c36 20
    117 67 180 103 l115 67 3 216 2 215 -174 101 c-97 55 -183 101 -193 100 -10 0
    -96 -46 -191 -102z m168 -134 l0 -168 -103 -57 c-56 -32 -121 -69 -144 -83
    l-43 -26 0 169 0 170 138 80 c75 45 140 81 145 81 4 1 7 -74 7 -166z m200 88
    c97 -57 137 -85 141 -102 4 -13 7 -88 8 -166 1 -108 -2 -143 -11 -143 -7 0
    -74 35 -148 78 l-135 78 -3 167 c-1 92 1 167 5 167 5 0 69 -36 143 -79z m-25
    -383 l143 -82 -88 -52 c-49 -28 -115 -66 -147 -84 l-58 -32 -139 79 c-76 44
    -138 84 -138 89 -1 9 259 163 276 164 5 0 73 -37 151 -82z"/>
  </g>
</svg>
