<svg version="1.0" xmlns="http://www.w3.org/2000/svg"
 width="778.000000pt" height="494.000000pt" viewBox="0 0 778.000000 494.000000"
 preserveAspectRatio="xMidYMid meet">
  <g transform="translate(0.000000,494.000000) scale(0.100000,-0.100000)"
  fill="#000000" stroke="none">
    <path d="M3610 3156 c-107 -62 -257 -149 -333 -193 -76 -44 -147 -87 -157 -96
    -17 -15 -18 -36 -13 -419 2 -222 8 -406 11 -410 4 -3 153 -91 332 -193 179
    -103 329 -191 334 -196 6 -5 18 -9 27 -9 16 0 624 345 692 392 l27 20 -2 406
    -3 407 -350 202 c-192 112 -354 203 -360 202 -5 0 -98 -51 -205 -113z m446
    -79 c126 -73 264 -152 307 -176 42 -25 77 -48 77 -52 0 -4 -63 -43 -140 -88
    l-141 -81 -164 95 c-90 52 -170 95 -178 95 -7 0 -85 -41 -173 -92 -87 -50
    -164 -91 -170 -91 -14 0 -284 155 -284 163 0 3 33 25 73 47 39 23 178 102 307
    177 129 74 240 136 246 136 6 0 114 -60 240 -133z m-749 -359 l143 -81 2 -200
    3 -199 167 -97 168 -96 0 -167 c0 -93 -2 -168 -4 -168 -5 0 -609 350 -618 358
    -8 8 -16 732 -9 732 3 0 69 -37 148 -82z m483 -82 c0 -134 -3 -166 -15 -176
    -9 -7 -17 -11 -19 -9 -2 2 -6 77 -8 167 -5 143 -3 164 11 172 9 5 19 10 24 10
    4 0 7 -74 7 -164z m690 -201 c0 -350 -1 -365 -19 -375 -11 -5 -22 -10 -25 -10
    -3 0 -6 164 -6 365 0 336 1 365 18 374 9 6 20 11 25 11 4 0 7 -164 7 -365z
    m-761 161 l2 -164 -30 -22 -31 -21 0 169 c0 165 1 170 23 185 12 9 25 16 28
    16 3 1 7 -73 8 -163z m681 -204 l0 -369 -24 -11 c-20 -9 -25 -8 -30 4 -9 23
    -7 697 2 710 6 9 41 33 50 34 1 0 2 -166 2 -368z m-770 150 l0 -169 -25 -11
    c-14 -7 -28 -12 -30 -12 -3 0 -5 74 -5 165 l0 164 28 15 c15 8 28 15 30 16 1
    0 2 -76 2 -168z m688 -209 l-1 -352 -23 -16 c-13 -8 -26 -15 -29 -15 -3 0 -5
    164 -5 364 0 365 0 365 22 380 17 12 24 13 30 3 4 -6 7 -170 6 -364z m-795
    -21 c-17 -12 -18 -4 -21 155 -2 151 -1 169 15 181 17 12 18 4 21 -155 2 -151
    1 -169 -15 -181z m707 -16 l0 -365 -22 -15 c-12 -9 -26 -16 -31 -16 -5 0 -6
    160 -1 367 6 320 9 370 23 380 9 7 19 13 24 13 4 0 7 -164 7 -364z m-265 42
    l143 -82 -88 -52 c-49 -28 -115 -66 -147 -84 l-58 -32 -139 79 c-76 44 -138
    84 -138 88 0 9 260 164 276 165 5 0 73 -37 151 -82z m175 -296 l0 -169 -25
    -11 -25 -12 0 170 c0 150 2 170 18 179 9 6 20 11 25 11 4 0 7 -76 7 -168z
    m-80 -42 l0 -169 -30 -16 -30 -16 0 168 0 168 28 17 c15 10 28 18 30 18 1 0 2
    -76 2 -170z m-90 -54 c0 -160 -1 -165 -22 -181 l-23 -15 -3 167 c-2 149 -1
    169 15 180 9 7 20 13 25 13 4 0 8 -74 8 -164z m-97 -223 c-9 -7 -20 -13 -25
    -13 -4 0 -8 74 -8 164 0 160 1 165 23 181 l22 15 3 -167 c2 -149 1 -169 -15
    -180z"/>
  </g>
</svg>
