<?xml version="1.0" encoding="utf-8"?>
<svg version="1.0" width="1800.000000pt" height="1800.000000pt" viewBox="0 0 1800.000000 1800.000000" preserveAspectRatio="xMidYMid meet" xmlns="http://www.w3.org/2000/svg">
  <g transform="translate(0.000000,1800.000000) scale(0.100000,-0.100000)" fill="#000000" stroke="none">
    <path d="M8030 16801 c-72 -23 -113 -49 -178 -113 -85 -83 -143 -175 -181 -286 -21 -62 -29 -125 -13 -106 5 5 21 42 37 83 81 212 222 331 425 355 107 13 111 15 108 44 -2 18 -11 28 -28 33 -45 12 -114 8 -170 -10z"/>
    <path d="M8120 16617 c-123 -29 -179 -83 -213 -207 -9 -30 -36 -125 -62 -210 -86 -288 -213 -861 -235 -1060 -24 -207 13 -351 115 -455 73 -74 157 -119 335 -180 213 -73 279 -117 323 -213 20 -44 22 -63 22 -266 0 -217 0 -219 22 -229 18 -8 30 -5 63 18 50 35 83 76 149 185 29 47 68 99 87 117 65 58 184 61 354 10 198 -61 447 -77 557 -35 147 55 330 313 456 643 25 66 71 190 103 275 75 205 157 407 201 494 46 91 73 170 73 213 0 103 -91 198 -323 335 -281 167 -505 258 -911 373 -576 163 -958 229 -1116 192z m655 -277 c129 -22 244 -53 369 -99 87 -33 91 -35 82 -50 -5 -7 -30 -2 -72 14 -72 27 -271 77 -378 95 -105 17 -365 29 -516 24 -147 -5 -152 6 -10 25 47 6 96 13 110 15 55 10 302 -5 415 -24z m-58 -345 c124 -37 180 -118 159 -229 -7 -37 -36 -52 -36 -18 0 34 -48 120 -81 145 -119 90 -331 35 -448 -116 -135 -176 -199 -496 -126 -636 41 -81 152 -142 228 -126 110 24 206 144 207 258 0 40 -5 53 -32 82 -28 30 -47 39 -123 57 -102 24 -115 31 -115 63 0 44 23 51 118 31 112 -22 200 -64 231 -110 60 -90 4 -283 -113 -389 -63 -57 -124 -81 -206 -82 -65 0 -82 4 -128 29 -174 97 -233 317 -156 582 66 231 218 414 384 465 44 13 184 10 237 -6z m1423 -144 c102 -56 130 -90 130 -158 0 -28 -5 -55 -11 -59 -9 -5 -10 3 -5 30 13 71 -41 131 -188 207 -68 35 -91 58 -33 34 17 -7 66 -32 107 -54z m-740 -105 c65 -47 98 -99 116 -186 49 -231 -69 -599 -246 -764 -127 -119 -289 -129 -387 -25 -144 154 -28 598 222 855 61 62 199 154 229 153 11 0 41 -15 66 -33z m476 -248 c-16 -104 -87 -310 -192 -558 -97 -230 -108 -245 -149 -201 -16 19 -16 23 8 88 14 37 37 100 51 139 97 278 238 574 273 574 13 0 14 -8 9 -42z m-2057 -293 c-12 -72 -8 -187 10 -246 18 -58 66 -116 136 -161 71 -47 82 -64 35 -54 -75 14 -158 106 -187 206 -19 67 -21 195 -3 273 18 77 24 66 9 -18z m317 -500 c18 -14 18 -14 -7 -15 -15 0 -32 7 -39 15 -10 12 -9 15 7 15 10 0 28 -7 39 -15z m1382 -103 c27 -35 2 -112 -37 -112 -28 0 -61 38 -61 70 0 60 62 87 98 42z m-999 -229 c6 -23 11 -54 10 -70 -1 -19 -6 -9 -15 31 -8 32 -21 68 -29 79 -8 12 -15 28 -15 37 1 27 38 -32 49 -77z m1152 -16 c-25 -38 -28 -19 -4 26 9 18 18 26 20 19 3 -7 -5 -27 -16 -45z m-61 -72 c0 -23 -75 -72 -132 -85 -54 -13 -166 -8 -196 9 -12 8 8 10 74 11 100 0 162 16 209 55 35 28 45 31 45 10z" style="fill: rgb(45, 133, 85);"/>
    <path d="M9280 15667 c-65 -52 -172 -161 -204 -208 -72 -107 -134 -251 -161 -372 -19 -86 -16 -135 15 -204 60 -136 231 -95 350 84 101 153 154 332 148 503 -3 96 -6 112 -36 173 -18 37 -39 67 -45 67 -7 0 -37 -20 -67 -43z" style="fill: rgb(45, 133, 85);"/>
    <path d="M5352 16258 c-76 -10 -232 -59 -321 -99 -173 -78 -381 -258 -469 -404 l-39 -66 -36 45 c-81 98 -250 197 -402 236 -218 56 -505 39 -759 -45 -383 -126 -657 -317 -761 -530 -40 -81 -65 -171 -65 -232 0 -41 -1 -42 -27 -38 -198 30 -466 -3 -673 -85 -331 -130 -554 -361 -636 -660 -28 -101 -26 -320 4 -425 82 -286 318 -544 636 -696 317 -151 640 -153 873 -6 l41 26 46 -60 c85 -109 236 -201 405 -247 84 -22 117 -25 261 -26 137 -1 185 3 280 23 221 45 433 132 600 244 76 51 190 158 246 232 l31 39 114 -32 c279 -77 379 -78 602 -5 157 52 213 51 327 -3 102 -48 249 -143 384 -248 97 -75 140 -92 152 -62 3 8 -44 140 -104 293 l-110 278 86 23 c118 30 293 118 378 190 136 114 225 253 266 415 35 138 14 343 -50 490 -34 76 -99 164 -155 209 -59 47 -95 63 -168 79 -40 9 -50 15 -46 28 3 9 27 76 52 149 74 210 73 357 -1 504 -118 233 -354 418 -591 464 -82 15 -271 17 -371 2z m360 -73 c153 -32 270 -97 388 -215 138 -138 199 -266 200 -415 0 -101 -17 -172 -81 -342 -28 -74 -48 -140 -46 -147 4 -9 32 -15 84 -18 62 -4 90 -10 132 -33 149 -81 242 -283 243 -525 0 -100 -4 -126 -28 -199 -62 -187 -214 -350 -417 -446 -68 -33 -246 -85 -289 -85 -10 0 -21 -7 -24 -15 -4 -9 35 -119 85 -247 50 -127 90 -233 88 -235 -3 -2 -40 21 -83 50 -121 83 -292 187 -364 221 -85 40 -155 40 -255 1 -179 -70 -290 -87 -434 -66 -90 13 -209 50 -283 87 -26 13 -54 24 -61 24 -8 0 -31 -28 -52 -62 -21 -33 -72 -95 -114 -137 -205 -204 -520 -342 -846 -371 -334 -29 -623 81 -770 294 -22 33 -46 56 -56 56 -10 0 -43 -18 -74 -39 -31 -22 -95 -54 -143 -72 -84 -32 -92 -33 -237 -34 -136 0 -159 3 -245 28 -381 114 -713 424 -795 741 -33 130 -29 292 12 421 96 306 408 552 808 636 60 13 337 18 450 9 l60 -5 7 85 c9 113 22 161 66 244 72 137 217 263 414 360 202 99 390 161 568 187 122 17 366 7 460 -21 154 -44 283 -125 366 -229 25 -31 52 -64 60 -73 24 -31 42 -20 73 42 43 87 86 146 165 228 174 180 376 278 676 325 61 10 231 5 292 -8z"/>
    <path d="M5670 15966 c0 -8 16 -15 42 -19 49 -7 64 -1 47 19 -15 19 -89 19 -89 0z"/>
    <path d="M5820 15953 c0 -4 25 -21 55 -36 149 -78 246 -276 231 -470 -3 -45 -9 -97 -12 -114 -4 -21 -2 -33 4 -33 38 0 50 248 18 355 -37 122 -107 222 -191 268 -48 27 -105 44 -105 30z"/>
    <path d="M3511 15690 c-246 -35 -467 -173 -609 -382 -33 -48 -39 -68 -22 -68 6 0 10 4 10 8 0 18 143 163 207 210 86 63 211 126 305 153 125 36 310 37 471 2 27 -5 28 -4 25 23 -3 26 -8 30 -58 41 -75 17 -251 24 -329 13z"/>
    <path d="M3963 15624 c-7 -19 13 -34 45 -34 15 0 22 6 22 19 0 31 -56 44 -67 15z"/>
    <path d="M5423 15461 c-136 -62 -202 -271 -132 -418 27 -56 73 -95 172 -144 138 -69 163 -108 112 -175 -24 -31 -28 -33 -75 -27 -64 7 -80 -5 -80 -64 0 -36 6 -50 29 -74 25 -24 38 -29 78 -29 61 0 120 27 172 79 69 69 77 164 23 264 -35 64 -76 99 -182 152 -52 26 -97 56 -107 71 -20 32 -23 137 -4 174 27 51 41 60 98 60 44 0 58 5 78 25 42 41 29 95 -26 114 -47 16 -109 13 -156 -8z"/>
    <path d="M4958 15270 c-9 -6 -46 -66 -83 -135 -36 -68 -76 -143 -89 -166 l-24 -41 -32 98 c-17 55 -38 109 -45 120 -29 45 -119 37 -131 -12 -4 -13 7 -62 25 -116 61 -186 171 -605 171 -650 0 -27 45 -68 74 -68 14 0 37 11 52 24 l28 23 -13 69 c-6 38 -23 116 -37 172 -14 57 -24 105 -22 107 2 2 26 -10 53 -27 77 -48 339 -177 373 -184 22 -5 35 -1 51 15 24 24 28 78 9 103 -7 9 -57 38 -111 63 -110 52 -285 149 -305 169 -12 11 2 42 78 184 99 184 103 203 53 242 -28 22 -49 25 -75 10z"/>
    <path d="M4298 15048 c-38 -29 -38 -59 -2 -153 40 -104 85 -255 75 -255 -18 0 -246 152 -370 247 -54 41 -101 44 -136 9 -17 -17 -22 -31 -18 -47 17 -69 226 -648 242 -668 23 -33 60 -42 99 -25 26 11 32 19 32 43 0 17 -34 124 -74 238 -41 114 -74 209 -72 210 1 1 27 -14 57 -34 29 -21 112 -71 184 -113 l129 -76 24 -59 c31 -77 47 -95 89 -95 40 0 73 30 73 66 0 15 -18 72 -40 128 -22 56 -65 186 -95 290 -31 104 -68 214 -83 245 -24 51 -30 56 -62 59 -19 2 -43 -3 -52 -10z"/>
    <path d="M6390 14871 c0 -7 16 -42 36 -77 63 -113 80 -229 50 -344 -17 -67 -6 -99 18 -53 46 90 40 258 -14 368 -28 59 -90 131 -90 106z"/>
    <path d="M3514 14803 c-12 -2 -30 -13 -40 -24 -16 -18 -17 -41 -16 -235 1 -119 7 -277 12 -352 5 -76 10 -147 10 -159 0 -31 34 -63 66 -63 15 0 38 12 55 30 28 28 30 34 25 82 -3 29 -7 75 -8 101 l-3 49 59 24 c46 19 62 21 68 12 4 -7 31 -55 60 -106 57 -99 79 -116 124 -92 27 15 36 37 36 85 0 57 -46 137 -279 492 -85 129 -116 166 -140 162 -4 -1 -18 -4 -29 -6z m125 -355 c23 -40 23 -42 5 -55 -27 -19 -31 -17 -38 25 -14 84 -3 93 33 30z"/>
    <path d="M3087 14699 c-35 -21 -36 -50 -6 -179 16 -68 26 -126 22 -130 -5 -4 -37 -15 -73 -25 -36 -10 -94 -30 -129 -43 -50 -20 -65 -22 -71 -12 -5 7 -19 53 -31 103 -30 114 -69 149 -130 116 -44 -23 -42 -42 46 -381 47 -177 91 -337 99 -355 28 -61 126 -48 134 18 2 14 -15 94 -37 179 -23 85 -37 157 -33 161 12 11 133 56 200 75 52 14 65 15 72 4 4 -7 20 -58 35 -114 63 -241 87 -284 149 -272 42 8 68 41 60 75 -4 14 -22 80 -41 146 -20 66 -64 232 -99 370 -43 173 -68 253 -80 262 -21 16 -62 16 -87 2z"/>
    <path d="M1640 14648 c-170 -97 -281 -327 -253 -523 12 -82 55 -182 101 -235 25 -28 31 -31 32 -16 0 10 -9 33 -20 51 -36 58 -70 165 -77 239 -13 165 68 326 214 421 67 44 84 61 76 81 -7 19 -10 18 -73 -18z"/>
    <path d="M2350 14469 c-162 -45 -420 -136 -441 -155 -29 -26 -24 -68 12 -98 34 -29 45 -31 86 -15 15 6 63 24 106 39 l77 29 14 -27 c16 -30 186 -541 186 -558 0 -6 9 -20 20 -32 42 -45 130 -20 130 37 0 12 -44 153 -97 314 -54 160 -98 297 -98 302 0 6 38 20 85 32 90 24 120 46 120 90 0 31 -42 73 -72 72 -13 -1 -70 -14 -128 -30z"/>
    <path d="M6436 14334 c-3 -9 -6 -25 -6 -37 l1 -22 19 23 c10 13 16 30 13 37 -7 20 -19 19 -27 -1z"/>
    <path d="M1540 13806 c0 -20 29 -66 41 -66 18 0 8 37 -16 60 -21 20 -25 21 -25 6z"/>
    <path d="M4770 13649 c0 -25 148 -69 232 -69 71 0 148 19 148 36 0 12 -9 14 -47 8 -80 -13 -174 -7 -255 14 -43 11 -78 16 -78 11z"/>
    <path d="M5231 13651 c-35 -9 -39 -31 -6 -31 30 0 65 16 65 30 0 11 -23 11 -59 1z"/>
    <path d="M5640 13581 c0 -10 94 -71 110 -71 25 0 6 22 -42 50 -56 32 -68 35 -68 21z"/>
    <path d="M4077 13482 c-18 -19 -23 -42 -9 -42 16 0 52 32 52 46 0 20 -24 18 -43 -4z"/>
    <path d="M5820 13462 c0 -10 22 -32 32 -32 15 0 8 28 -8 34 -21 8 -24 8 -24 -2z"/>
    <path d="M3960 13423 c-61 -44 -212 -111 -300 -134 -93 -24 -258 -31 -402 -16 -96 10 -102 -4 -15 -31 96 -31 113 -33 231 -33 177 1 331 51 479 154 33 23 57 47 57 58 0 28 -12 29 -50 2z"/>
    <path d="M12185 16123 c-273 -63 -331 -91 -280 -133 43 -36 401 38 419 86 16 42 -56 66 -139 47z"/>
    <path d="M10490 16069 c0 -6 22 -35 49 -64 73 -81 95 -134 94 -230 0 -60 -7 -98 -26 -154 -56 -156 -43 -237 17 -111 42 87 60 185 54 301 -5 109 -40 185 -106 236 -43 33 -82 43 -82 22z"/>
    <path d="M12535 16003 c-66 -8 -237 -46 -355 -79 -141 -40 -409 -122 -422 -130 -15 -10 -8 -34 10 -34 40 0 452 83 594 119 200 52 272 80 276 109 3 20 -1 22 -35 21 -21 -1 -51 -4 -68 -6z"/>
    <path d="M13855 15884 c-496 -25 -921 -79 -1300 -164 -625 -140 -931 -271 -1150 -494 -98 -99 -144 -169 -182 -274 -108 -295 71 -608 451 -788 125 -59 308 -118 461 -149 148 -30 170 -38 180 -62 4 -10 12 -142 17 -293 5 -151 11 -285 14 -298 7 -35 47 -49 79 -28 14 9 25 22 25 29 0 20 97 132 211 244 132 130 191 177 257 210 48 23 60 25 135 20 45 -3 135 -19 199 -36 375 -96 1246 -155 1783 -121 551 35 901 110 1210 260 149 72 238 129 335 217 185 166 287 336 320 533 66 391 -233 763 -769 957 -287 104 -673 174 -1201 218 -175 15 -908 28 -1075 19z m915 -109 c681 -44 996 -95 1325 -216 209 -78 372 -177 506 -309 146 -144 206 -260 216 -421 26 -408 -362 -778 -990 -943 -360 -95 -664 -122 -1281 -113 -511 7 -796 32 -1241 109 -264 46 -334 50 -413 24 -111 -37 -299 -195 -403 -340 -18 -25 -35 -46 -39 -46 -3 0 -12 100 -19 223 -12 211 -22 301 -34 313 -3 4 -76 22 -163 40 -423 92 -647 186 -794 333 -213 215 -200 510 33 728 332 310 1207 557 2207 622 221 14 839 12 1090 -4z"/>
    <path d="M14190 15619 c-460 -12 -811 -45 -1070 -101 -103 -21 -136 -43 -52 -33 98 11 662 65 772 74 148 12 635 8 1002 -9 276 -12 333 -10 312 9 -19 19 -263 52 -414 56 -85 3 -182 7 -215 8 -33 2 -184 0 -335 -4z"/>
    <path d="M15248 15563 c-28 -7 -21 -20 13 -27 74 -15 115 -1 70 24 -20 10 -52 11 -83 3z"/>
    <path d="M12315 15226 c-27 -41 -44 -187 -46 -399 -3 -187 -1 -206 19 -258 59 -150 193 -190 517 -156 129 14 141 17 162 42 29 33 29 74 2 110 l-22 27 -206 -4 c-203 -3 -207 -3 -249 21 -55 32 -59 47 -71 306 -11 213 -22 286 -49 318 -21 24 -39 21 -57 -7z"/>
    <path d="M14974 15190 c-90 -28 -180 -123 -226 -239 -19 -48 -22 -76 -23 -187 0 -130 0 -131 35 -199 66 -131 180 -195 356 -203 153 -6 264 25 347 98 48 42 51 88 8 131 -38 37 -78 38 -214 3 -151 -38 -237 -26 -301 43 -14 15 -30 39 -34 53 l-9 25 96 0 c85 0 102 3 146 27 190 101 201 337 20 430 -45 24 -152 33 -201 18z m157 -169 c23 -24 29 -38 29 -74 0 -62 -26 -92 -93 -107 -70 -15 -157 -4 -157 20 0 62 55 144 114 171 56 25 73 24 107 -10z"/>
    <path d="M13459 15146 c-2 -2 -24 -7 -48 -11 -24 -3 -61 -13 -83 -22 -49 -19 -129 -107 -165 -181 -25 -51 -28 -68 -28 -157 0 -91 3 -106 32 -167 61 -130 169 -203 299 -203 58 1 78 6 116 28 168 98 222 337 122 541 -38 77 -106 143 -168 161 -51 15 -70 18 -77 11z m29 -178 c64 -62 85 -109 85 -193 0 -89 -27 -156 -73 -180 -114 -59 -242 110 -199 262 9 35 27 62 66 101 30 28 59 52 66 52 7 0 32 -19 55 -42z"/>
    <path d="M13936 15115 c-45 -45 -33 -200 29 -400 91 -295 148 -372 261 -350 64 12 120 80 211 260 89 176 173 380 173 420 0 40 -16 62 -54 75 -39 13 -78 6 -99 -18 -8 -10 -32 -62 -52 -117 -43 -116 -177 -399 -193 -409 -22 -13 -43 43 -151 400 -42 139 -81 182 -125 139z"/>
    <path d="M16550 15042 c0 -5 9 -47 21 -93 29 -114 23 -192 -20 -278 -23 -45 -29 -67 -22 -74 16 -16 62 21 89 74 21 38 23 54 19 124 -5 86 -52 246 -74 253 -7 2 -13 -1 -13 -6z"/>
    <path d="M15735 14968 c-98 -85 3 -366 171 -477 43 -28 48 -29 73 -16 80 41 170 193 193 322 14 84 7 116 -37 160 -25 25 -42 33 -69 33 -49 0 -102 -47 -119 -107 l-13 -45 -12 38 c-28 95 -127 143 -187 92z"/>
    <path d="M11405 14886 c-20 -48 -18 -159 4 -223 24 -69 57 -116 105 -147 38 -25 86 -35 86 -18 0 4 -27 34 -60 67 -96 95 -113 153 -97 324 3 38 -22 37 -38 -3z"/>
    <path d="M11635 14429 c-15 -24 67 -78 100 -65 31 11 16 43 -28 60 -50 19 -63 20 -72 5z"/>
    <path d="M16015 14224 c-92 -34 -426 -125 -567 -154 -272 -56 -415 -71 -723 -75 -154 -2 -345 1 -425 5 -80 4 -147 6 -149 4 -32 -30 220 -58 529 -57 438 0 812 62 1220 202 186 64 180 61 180 77 0 17 -14 17 -65 -2z"/>
    <path d="M13907 14033 c-15 -14 -5 -23 43 -37 55 -17 83 -12 78 12 -5 24 -103 44 -121 25z"/>
    <path d="M2188 15827 c-43 -26 -118 -120 -118 -148 0 -10 11 -26 24 -34 24 -16 26 -15 111 71 62 62 85 93 83 108 -4 30 -54 32 -100 3z"/>
    <path d="M2425 15742 c-92 -67 -210 -220 -203 -264 2 -17 10 -24 33 -26 26 -2 35 5 69 53 22 30 77 91 123 135 64 61 84 85 81 103 -5 35 -55 35 -103 -1z"/>
    <path d="M7367 15163 c-13 -13 -7 -234 9 -311 32 -156 109 -290 202 -352 51 -34 76 -35 80 -5 2 14 -20 44 -70 95 -121 124 -176 255 -197 474 -10 101 -13 111 -24 99z"/>
    <path d="M10009 14268 c-24 -59 -106 -173 -153 -215 -31 -27 -77 -53 -130 -73 -121 -46 -128 -49 -124 -62 8 -23 65 -32 123 -19 106 24 224 137 298 287 21 44 28 69 23 88 -9 35 -21 33 -37 -6z"/>
    <path d="M10855 13541 c-154 -70 -169 -292 -25 -387 50 -33 147 -44 200 -22 149 63 189 262 74 370 -62 58 -170 75 -249 39z"/>
    <path d="M6943 13091 c-95 -75 -137 -117 -129 -129 12 -20 31 -14 87 30 84 64 119 100 119 120 0 28 -24 22 -77 -21z"/>
    <path d="M7165 13063 c-72 -47 -315 -246 -315 -259 0 -6 7 -17 15 -24 13 -11 22 -8 55 16 281 210 356 283 299 291 -8 1 -32 -10 -54 -24z"/>
    <path d="M11211 12983 c-44 -22 -71 -68 -71 -121 0 -80 51 -132 130 -132 78 0 126 43 136 122 12 101 -103 178 -195 131z"/>
    <path d="M8235 12958 c-514 -47 -963 -278 -1239 -637 -223 -291 -305 -609 -247 -953 47 -274 212 -600 421 -833 88 -99 130 -170 130 -223 0 -71 -99 -268 -198 -397 -73 -95 -136 -159 -454 -465 -90 -85 -104 -114 -73 -140 33 -27 346 19 573 85 214 61 362 129 553 255 75 49 132 80 149 80 71 0 167 -103 300 -324 112 -185 216 -338 277 -409 153 -179 359 -290 615 -333 122 -20 369 -15 487 11 269 59 544 196 774 383 108 89 265 257 346 370 160 224 276 524 327 849 22 138 29 470 15 634 -29 321 -126 664 -263 932 -290 567 -762 896 -1503 1051 -327 67 -691 91 -990 64z m640 -128 c591 -68 1078 -261 1386 -552 592 -559 801 -1661 469 -2475 -84 -204 -204 -376 -386 -553 -238 -230 -510 -386 -810 -466 -134 -35 -379 -45 -503 -20 -210 43 -362 125 -516 280 -111 111 -179 207 -281 396 -141 263 -182 320 -263 372 -36 22 -56 28 -100 28 -73 0 -133 -28 -275 -129 -154 -109 -262 -160 -469 -221 -99 -30 -365 -85 -372 -78 -2 2 66 73 152 158 262 261 367 409 455 644 59 157 50 198 -78 351 -164 195 -304 434 -369 629 -53 160 -68 259 -62 411 14 306 139 570 383 805 231 223 573 377 929 419 50 6 101 13 115 15 88 12 431 4 595 -14z"/>
    <path d="M7989 12560 c-248 -63 -567 -356 -709 -652 -117 -244 -72 -456 117 -555 74 -39 100 -45 195 -44 182 1 388 111 576 306 293 303 382 621 225 804 -34 41 -57 55 -182 117 -60 30 -158 40 -222 24z m175 -207 c3 -10 10 -48 16 -84 26 -153 -33 -288 -201 -459 -115 -118 -205 -177 -314 -206 -106 -29 -130 -13 -141 93 -9 79 12 140 78 234 133 189 341 363 508 425 47 17 48 17 54 -3z"/>
    <path d="M9145 12550 c-10 -17 -2 -22 120 -70 292 -114 524 -266 717 -468 99 -104 165 -200 280 -410 45 -81 98 -176 118 -211 38 -70 50 -79 73 -57 19 19 10 62 -35 180 -156 405 -644 851 -1093 998 -139 46 -171 52 -180 38z"/>
    <path d="M8916 12070 c-108 -63 -173 -117 -336 -275 -174 -168 -284 -269 -459 -419 -267 -230 -421 -401 -421 -469 0 -73 90 -142 154 -118 65 25 173 117 357 303 l197 198 -50 -162 c-73 -237 -118 -407 -118 -442 0 -98 131 -172 204 -115 68 54 131 316 144 609 l7 144 40 7 c22 4 81 13 130 19 195 27 449 101 675 198 114 48 136 62 144 85 13 35 -18 81 -59 85 -15 2 -114 -8 -219 -23 -305 -42 -551 -72 -555 -68 -3 2 41 49 96 106 137 140 233 274 233 325 0 27 -32 52 -66 52 -16 0 -60 -18 -98 -40z"/>
    <path d="M6980 11601 c-14 -27 -12 -151 3 -180 19 -37 32 -21 29 35 -2 28 1 69 7 92 12 44 6 72 -15 72 -7 0 -18 -9 -24 -19z"/>
    <path d="M7044 11208 c9 -59 74 -189 134 -269 49 -64 108 -107 125 -90 16 16 -3 48 -70 123 -45 50 -82 105 -117 176 -54 110 -83 134 -72 60z"/>
    <path d="M9710 11216 c-198 -86 -266 -127 -900 -544 -162 -107 -352 -234 -422 -284 -112 -78 -129 -94 -139 -128 -16 -51 8 -116 57 -160 54 -47 103 -43 190 17 162 109 385 267 390 274 3 5 33 -18 67 -51 l61 -60 -30 -32 c-203 -219 -229 -263 -222 -356 8 -94 66 -124 162 -82 68 29 123 85 291 295 279 350 396 517 499 708 68 127 156 342 156 383 0 64 -46 70 -160 20z m-322 -488 c-86 -109 -230 -283 -237 -286 -13 -5 -104 59 -95 68 22 21 350 259 357 260 5 0 -6 -19 -25 -42z"/>
    <path d="M10475 11191 c-8 -13 73 -283 88 -293 16 -11 20 -10 41 5 16 11 18 22 12 59 -8 50 -55 157 -92 206 -26 33 -38 39 -49 23z"/>
    <path d="M10004 10767 c-33 -34 -73 -89 -91 -122 -67 -128 -120 -323 -143 -525 -20 -179 3 -150 -198 -247 -198 -95 -419 -191 -502 -218 -34 -11 -69 -32 -92 -55 -35 -35 -38 -42 -38 -97 0 -76 30 -124 95 -148 68 -27 131 -15 245 43 388 198 748 378 875 437 257 120 455 270 455 345 0 60 -13 70 -88 70 -88 0 -218 -36 -362 -99 -63 -28 -117 -51 -120 -51 -14 0 34 298 72 445 25 100 35 233 19 263 -22 42 -62 29 -127 -41z"/>
    <path d="M7569 10283 c-55 -131 -103 -214 -164 -283 -63 -73 -74 -90 -57 -90 17 0 89 58 126 101 49 57 113 190 124 257 12 69 -3 77 -29 15z"/>
    <path d="M8714 9158 c-22 -35 175 -151 316 -187 166 -42 332 -33 385 20 33 33 4 39 -170 38 -193 -2 -242 9 -402 87 -62 29 -115 54 -117 54 -3 0 -8 -5 -12 -12z"/>
    <path d="M9653 9113 c-102 -56 -127 -83 -78 -83 36 0 132 35 177 65 29 19 38 32 36 48 -2 12 -10 23 -18 24 -8 1 -61 -23 -117 -54z"/>
    <path d="M15315 12946 c-153 -32 -241 -81 -347 -194 -171 -182 -267 -453 -328 -922 -73 -572 -97 -1102 -70 -1567 20 -350 52 -574 111 -779 112 -391 341 -684 590 -759 78 -22 200 -21 281 4 341 107 602 672 692 1501 25 229 37 563 39 1130 2 597 -4 698 -58 904 -89 343 -291 580 -569 668 -77 25 -257 32 -341 14z m427 -157 c52 -27 122 -97 178 -178 51 -77 85 -157 69 -167 -15 -9 -22 0 -74 96 -50 91 -121 171 -197 223 -72 49 -56 67 24 26z m-394 -431 c25 -31 34 -144 27 -359 l-7 -216 95 5 c123 6 183 -3 213 -33 32 -32 32 -85 0 -122 l-24 -28 -184 0 c-212 0 -234 7 -262 75 -20 50 -20 111 -2 238 8 53 17 138 21 187 8 105 30 210 51 242 16 25 55 31 72 11z m735 -43 c23 -48 23 -88 0 -83 -32 6 -55 118 -25 118 4 0 16 -16 25 -35z m-561 -1100 c39 -6 93 -56 123 -115 28 -54 55 -180 55 -256 0 -215 -148 -393 -308 -369 -141 20 -215 132 -215 325 0 88 5 118 27 184 45 132 109 211 194 236 26 8 47 7 124 -5z m-722 -929 c0 -76 28 -347 45 -439 20 -105 35 -161 95 -356 51 -167 57 -206 30 -206 -21 0 -114 191 -144 295 -48 169 -60 271 -61 490 0 204 7 286 26 275 5 -4 9 -30 9 -59z m464 -72 c9 -3 25 -36 37 -73 19 -57 22 -96 26 -281 2 -119 9 -228 15 -243 16 -42 55 -57 145 -57 127 0 186 -27 186 -85 0 -64 -87 -100 -243 -100 -95 0 -111 3 -162 28 -107 52 -116 93 -99 447 8 179 14 239 31 292 11 36 26 69 33 71 6 3 13 6 14 6 1 1 8 -2 17 -5z m-151 -1104 c68 -69 81 -101 45 -108 -22 -4 -92 59 -112 102 -17 36 -21 76 -8 76 4 0 38 -32 75 -70z" style="fill: rgb(45, 133, 85);"/>
    <path d="M15424 11082 c-44 -39 -69 -79 -88 -141 -32 -107 -16 -223 37 -267 40 -33 72 -31 112 9 75 75 87 249 25 365 -18 34 -38 62 -44 62 -6 0 -25 -13 -42 -28z" style="fill: rgb(45, 133, 85);"/>
    <path d="M14670 12792 c-115 -121 -194 -276 -219 -433 -16 -99 -14 -139 7 -139 13 0 23 22 45 103 46 168 124 313 236 439 52 57 63 91 35 102 -25 10 -26 9 -104 -72z"/>
    <path d="M16194 12827 c-2 -7 18 -57 46 -112 62 -122 109 -265 150 -460 32 -153 60 -235 80 -235 38 0 36 150 -6 321 -59 243 -239 567 -270 486z"/>
    <path d="M12663 12549 c-451 -69 -795 -306 -918 -632 -62 -167 -68 -336 -20 -572 42 -203 28 -268 -87 -407 -84 -101 -158 -169 -233 -212 -36 -22 -65 -46 -69 -58 -7 -29 10 -58 35 -58 21 0 295 60 386 84 l51 14 7 -137 c12 -254 40 -391 110 -536 136 -279 368 -406 750 -406 229 -1 393 43 583 156 218 130 420 368 527 624 151 357 192 888 100 1287 -86 372 -275 636 -547 764 -138 64 -264 91 -453 95 -88 2 -188 0 -222 -6z m482 -118 c102 -27 223 -85 302 -145 251 -190 386 -578 385 -1106 -1 -407 -85 -719 -268 -995 -54 -82 -177 -210 -265 -275 -332 -247 -827 -280 -1114 -76 -186 134 -272 344 -304 753 -9 108 -8 136 3 159 19 35 10 54 -24 54 -24 0 -152 -21 -219 -36 -21 -4 -17 2 24 48 70 77 140 188 164 260 26 77 27 158 2 263 -48 199 -52 386 -11 520 91 298 402 523 815 590 134 21 404 14 510 -14z"/>
    <path d="M13130 12291 c0 -5 39 -31 86 -56 104 -57 148 -95 226 -197 61 -80 78 -93 78 -58 0 72 -134 218 -259 283 -69 35 -131 48 -131 28z"/>
    <path d="M12530 12065 c-9 -11 -12 -58 -9 -192 l4 -177 -60 -12 c-33 -6 -76 -14 -96 -18 l-36 -6 -12 62 c-15 76 -67 234 -87 266 -18 27 -45 28 -68 3 -16 -17 -16 -33 -7 -178 17 -251 52 -596 62 -624 10 -26 45 -49 74 -49 8 0 27 11 42 24 l28 24 -2 146 c0 80 -4 164 -8 186 l-7 40 91 0 91 0 0 -82 c0 -124 18 -270 35 -287 20 -20 73 -18 95 5 31 31 45 196 31 364 -13 147 -50 347 -84 450 -23 69 -50 88 -77 55z"/>
    <path d="M13004 12072 c-21 -13 -63 -109 -83 -188 -11 -43 -45 -204 -76 -357 -54 -264 -56 -279 -40 -303 31 -48 102 -57 124 -16 5 10 17 61 26 113 27 163 15 145 98 148 40 1 81 3 91 4 16 2 26 -16 56 -93 50 -132 61 -152 92 -169 24 -14 30 -14 62 2 43 20 54 55 36 106 -21 59 -208 501 -241 571 -32 66 -114 190 -127 190 -4 0 -12 -4 -18 -8z m80 -377 c22 -58 37 -107 35 -108 -5 -4 -114 -37 -121 -37 -2 0 5 56 16 125 11 69 23 125 26 125 3 0 23 -47 44 -105z"/>
    <path d="M11950 11960 c-48 -68 -84 -233 -66 -304 11 -46 22 -28 34 59 8 58 23 111 47 166 34 75 39 109 16 109 -5 0 -19 -14 -31 -30z"/>
    <path d="M13525 11874 c17 -42 35 -109 35 -131 0 -16 6 -23 19 -23 11 0 23 5 26 10 11 18 -6 88 -29 122 -24 37 -64 53 -51 22z"/>
    <path d="M11890 11520 c0 -49 12 -66 24 -34 12 32 7 84 -9 84 -11 0 -15 -12 -15 -50z"/>
    <path d="M13686 11218 c-3 -13 -14 -122 -26 -243 -19 -193 -49 -395 -66 -440 -4 -8 -1 -15 4 -15 16 0 89 235 107 341 15 95 20 291 9 348 -8 36 -22 41 -28 9z"/>
    <path d="M11901 11074 c-24 -77 -23 -91 3 -81 31 12 56 157 28 157 -4 0 -18 -34 -31 -76z"/>
    <path d="M12530 11005 c-9 -11 -12 -58 -9 -192 l4 -177 -52 -12 c-28 -6 -71 -14 -96 -18 l-44 -7 -18 83 c-25 116 -73 246 -96 259 -22 11 -53 -2 -63 -27 -7 -18 6 -231 29 -474 8 -85 18 -186 21 -225 4 -38 13 -82 21 -97 23 -47 100 -50 125 -5 13 24 16 232 4 330 l-7 57 89 0 89 0 6 -148 c8 -181 13 -209 43 -229 29 -19 80 -9 95 19 22 41 32 217 20 357 -12 138 -55 364 -87 461 -20 59 -48 76 -74 45z"/>
    <path d="M12992 10998 c-45 -57 -62 -118 -143 -510 -65 -316 -65 -333 -13 -357 33 -15 55 -14 81 4 17 12 24 36 39 130 10 63 20 119 23 124 3 5 47 12 96 16 l90 7 40 -108 c47 -126 74 -164 116 -164 35 0 79 39 79 70 0 21 -43 129 -179 453 -84 200 -92 215 -144 290 -39 56 -65 70 -85 45z m128 -468 c0 -6 -97 -40 -117 -40 -9 0 18 200 33 240 5 12 84 -176 84 -200z"/>
    <path d="M13550 10426 c-14 -39 -16 -59 -4 -63 11 -4 34 46 34 73 0 23 -20 16 -30 -10z"/>
    <path d="M13035 9924 c-11 -3 -51 -16 -90 -29 -79 -27 -175 -45 -250 -45 -64 0 -125 -10 -125 -21 0 -18 80 -34 170 -33 172 2 365 63 365 114 0 15 -34 22 -70 14z"/>
    <path d="M12402 9853 c4 -21 76 -36 96 -21 22 18 -6 38 -55 38 -37 0 -44 -3 -41 -17z"/>
    <path d="M2914 12341 c-115 -70 -107 -226 13 -276 48 -20 79 -19 128 5 111 54 112 221 1 274 -45 21 -104 20 -142 -3z"/>
    <path d="M5635 12319 c-91 -10 -155 -27 -535 -148 -782 -248 -1498 -518 -2450 -923 -633 -270 -925 -508 -995 -812 -17 -73 -20 -490 -4 -570 17 -82 59 -204 104 -302 162 -349 406 -489 750 -429 112 20 201 44 350 95 66 22 278 93 470 156 316 104 826 276 1092 368 122 42 179 51 268 41 62 -6 73 -11 153 -73 131 -99 255 -205 379 -324 61 -60 117 -108 124 -108 7 0 20 6 28 14 14 13 16 45 14 238 -2 242 -14 388 -42 514 l-18 81 86 36 c179 76 516 287 673 421 119 101 207 227 242 344 25 86 22 495 -5 627 -54 259 -154 478 -277 607 -117 123 -232 164 -407 147z m227 -133 c148 -70 273 -287 354 -616 22 -91 28 -139 29 -230 0 -204 -43 -270 -301 -464 -215 -160 -446 -299 -619 -371 -158 -66 -172 -107 -105 -320 30 -94 55 -244 67 -392 l6 -88 -60 56 c-93 86 -217 183 -340 266 -62 42 -113 82 -113 90 0 36 -109 58 -212 42 -45 -7 -424 -128 -983 -316 -500 -167 -953 -315 -1005 -328 -398 -102 -623 30 -783 460 -48 129 -61 194 -61 315 -1 140 20 213 94 317 133 190 366 339 845 541 105 44 289 123 410 175 658 283 1374 546 2108 777 364 114 393 120 512 117 84 -3 109 -8 157 -31z"/>
    <path d="M5615 12099 c-96 -17 -241 -51 -349 -81 -116 -32 -365 -123 -380 -139 -16 -15 5 -11 85 16 148 51 405 118 587 154 104 21 187 42 190 49 4 14 -57 14 -133 1z"/>
    <path d="M5640 11896 c-163 -50 -189 -74 -171 -153 5 -27 15 -82 21 -123 26 -185 87 -385 133 -436 44 -51 82 -67 138 -61 62 8 120 38 180 94 39 37 49 52 49 78 0 37 -24 70 -57 80 -17 5 -35 -6 -83 -50 -77 -71 -104 -72 -138 -5 -12 25 -23 64 -25 85 l-2 40 71 23 c59 18 74 28 83 50 16 37 0 79 -34 92 -26 10 -82 2 -139 -19 -31 -12 -36 -1 -39 94 l-2 60 79 20 c84 22 106 40 106 86 0 32 -41 69 -74 68 -11 0 -55 -10 -96 -23z"/>
    <path d="M5150 11729 c-56 -22 -85 -65 -105 -153 l-6 -29 -22 21 c-79 72 -191 67 -242 -12 -57 -86 -4 -354 120 -613 45 -95 58 -113 81 -119 36 -9 76 13 88 49 8 22 2 42 -37 124 -96 202 -167 453 -128 453 31 0 126 -172 201 -365 24 -60 52 -118 63 -127 40 -37 117 -12 117 37 0 10 -15 70 -34 134 -49 164 -58 222 -54 341 3 98 4 105 23 102 37 -6 65 -57 116 -217 100 -314 115 -345 176 -345 38 0 77 33 70 58 -54 190 -115 383 -139 440 -73 177 -185 262 -288 221z"/>
    <path d="M4387 11436 c-48 -18 -92 -67 -117 -134 -70 -184 59 -524 232 -613 57 -30 136 -32 175 -4 15 12 41 47 57 79 25 48 30 73 34 156 4 82 1 110 -18 171 -58 192 -162 312 -305 352 -11 3 -37 0 -58 -7z m121 -190 c47 -54 102 -177 117 -263 7 -42 12 -81 10 -87 -2 -6 -6 -24 -9 -39 -8 -36 -42 -49 -79 -30 -54 27 -137 197 -152 310 -7 56 6 115 33 145 18 21 37 13 80 -36z"/>
    <path d="M3916 11250 c-90 -29 -150 -108 -149 -200 2 -124 77 -197 253 -245 91 -24 159 -61 170 -91 6 -14 10 -45 10 -70 0 -55 -17 -64 -61 -33 -37 26 -71 19 -101 -22 -29 -38 -15 -75 41 -111 40 -26 53 -29 103 -26 184 13 244 254 96 384 -58 51 -99 71 -207 103 -131 39 -169 70 -155 126 9 36 49 54 105 48 40 -5 48 -2 63 18 25 37 21 85 -10 106 -30 19 -116 27 -158 13z"/>
    <path d="M3510 11077 c-52 -18 -117 -44 -145 -57 -49 -25 -50 -26 -49 -70 1 -57 39 -186 105 -360 102 -266 145 -320 258 -320 98 0 241 95 241 159 0 39 -31 71 -67 71 -17 0 -46 -14 -72 -35 -75 -60 -137 -40 -181 57 -30 66 -27 74 35 97 31 12 62 21 69 21 21 0 46 34 46 64 0 33 -41 76 -72 76 -20 -1 -90 -23 -140 -44 -14 -6 -21 6 -43 75 -14 45 -24 88 -21 94 2 6 45 24 96 39 98 30 127 55 117 98 -18 69 -55 77 -177 35z"/>
    <path d="M2813 11073 c-37 -19 -45 -38 -10 -27 50 15 67 24 67 34 0 14 -19 12 -57 -7z"/>
    <path d="M2650 11026 c-88 -33 -310 -154 -430 -236 -54 -37 -146 -127 -138 -136 3 -2 25 14 49 37 94 88 237 170 512 292 34 16 57 32 57 41 0 19 -4 19 -50 2z"/>
    <path d="M3122 10868 c-12 -6 -25 -22 -29 -36 -6 -25 32 -136 109 -319 50 -120 57 -170 30 -203 -20 -24 -22 -24 -49 -10 -47 26 -153 201 -213 353 -33 84 -86 111 -130 67 -29 -29 -25 -65 19 -189 48 -133 77 -239 86 -307 6 -40 4 -54 -10 -67 -21 -22 -27 -21 -58 3 -41 32 -115 151 -202 325 -78 155 -81 160 -114 163 -39 4 -67 -17 -76 -57 -9 -44 108 -295 200 -426 126 -179 270 -233 367 -136 26 27 39 50 44 79 4 23 8 42 9 42 1 0 19 -7 38 -15 75 -31 150 -13 204 48 39 44 48 85 40 186 -7 91 -29 161 -108 347 -46 110 -65 144 -85 153 -30 13 -42 13 -72 -1z"/>
    <path d="M5655 10806 c-16 -13 -27 -28 -22 -32 8 -9 59 26 65 44 6 19 -10 14 -43 -12z"/>
    <path d="M5490 10726 c-41 -19 -110 -48 -152 -66 -73 -30 -134 -67 -125 -76 2 -3 26 5 53 17 27 11 95 38 152 59 117 45 162 69 162 87 0 18 -6 17 -90 -21z"/>
    <path d="M2170 10515 c-46 -21 -97 -70 -123 -120 -16 -30 -22 -64 -25 -137 -4 -83 0 -110 22 -190 28 -99 124 -306 156 -338 27 -27 71 -25 98 3 30 32 28 56 -14 132 -20 35 -34 70 -32 76 2 6 48 30 103 54 l100 44 34 -68 c38 -79 62 -95 108 -76 56 24 56 55 2 183 -98 230 -183 368 -259 418 -50 33 -120 41 -170 19z m147 -198 c29 -38 79 -150 68 -154 -5 -2 -50 -21 -100 -42 -49 -22 -92 -38 -94 -36 -8 9 -31 123 -31 158 0 28 7 44 26 62 43 39 105 45 131 12z"/>
    <path d="M4920 10111 c0 -5 12 -19 27 -31 20 -15 29 -18 32 -9 2 7 -6 21 -19 31 -24 20 -40 23 -40 9z"/>
    <path d="M5020 10037 c14 -13 55 -52 93 -87 47 -44 67 -58 67 -45 0 19 -61 79 -127 126 -50 35 -67 38 -33 6z"/>
    <path d="M3170 9866 c-45 -16 -56 -50 -13 -40 39 10 83 33 83 44 0 13 -27 11 -70 -4z"/>
    <path d="M2870 9756 c-143 -56 -236 -85 -355 -112 -30 -7 -30 -7 -5 -13 41 -11 144 8 251 45 166 58 299 116 299 130 0 8 -6 14 -12 14 -7 0 -87 -29 -178 -64z"/>
    <path d="M2211 12186 c-92 -33 -161 -135 -161 -239 0 -224 280 -332 433 -168 65 69 84 158 55 255 -16 55 -101 140 -154 155 -50 14 -130 13 -173 -3z"/>
    <path d="M11675 9824 c-20 -20 -16 -29 40 -114 61 -92 192 -215 245 -231 35 -11 43 -10 56 3 14 14 14 19 1 45 -9 16 -42 51 -74 78 -66 54 -95 84 -165 173 -52 64 -74 74 -103 46z"/>
    <path d="M11482 9598 c-32 -32 8 -148 73 -211 20 -20 55 -45 78 -56 36 -18 44 -19 62 -7 39 26 31 60 -25 107 -29 24 -74 74 -101 111 -49 68 -65 78 -87 56z"/>
    <path d="M16212 9278 c-11 -18 -50 -93 -87 -167 -70 -138 -150 -253 -229 -331 -70 -67 -58 -95 19 -44 59 39 141 121 190 189 101 142 190 385 141 385 -8 0 -23 -15 -34 -32z"/>
    <path d="M14475 9240 c-15 -24 60 -187 128 -279 108 -146 282 -269 312 -220 9 14 -13 37 -120 127 -49 42 -100 88 -113 102 -35 39 -127 179 -153 233 -22 45 -41 58 -54 37z"/>
    <path d="M7535 8813 c-71 -37 -105 -88 -105 -157 0 -101 58 -168 156 -179 135 -16 234 120 180 246 -37 87 -152 132 -231 90z"/>
    <path d="M4615 8710 c-77 -20 -136 -57 -217 -136 -67 -66 -76 -102 -33 -130 25 -16 28 -15 103 28 42 24 111 61 152 81 73 35 110 72 110 109 0 36 -62 61 -115 48z"/>
    <path d="M12260 8675 c-152 -35 -287 -111 -455 -258 -66 -58 -142 -131 -170 -163 -116 -136 -342 -351 -433 -413 -298 -202 -646 -261 -1157 -196 -411 52 -596 56 -765 14 -159 -40 -271 -103 -383 -216 -88 -90 -131 -150 -179 -252 -57 -122 -81 -247 -75 -386 7 -140 34 -243 97 -372 169 -342 493 -573 877 -624 120 -16 378 -6 523 20 135 24 371 84 555 140 454 138 485 147 592 161 145 19 261 -14 361 -105 29 -26 91 -96 137 -155 47 -59 114 -135 150 -167 72 -66 214 -143 265 -143 65 0 88 34 51 74 -10 12 -28 53 -39 91 -11 39 -38 119 -61 179 -87 231 -113 369 -87 459 21 74 92 146 237 245 205 138 341 282 471 497 307 510 328 1035 53 1368 -135 163 -368 247 -565 202z m280 -190 c78 -40 137 -107 208 -236 58 -107 75 -159 53 -159 -18 0 -63 64 -106 150 -57 114 -115 172 -221 222 -45 21 -87 38 -93 38 -6 0 -11 5 -11 11 0 21 112 3 170 -26z m-252 -349 c140 -72 262 -285 262 -459 0 -41 -5 -89 -12 -108 -49 -143 -209 -219 -332 -159 -133 64 -270 324 -252 478 8 68 38 131 84 175 20 20 46 45 57 57 43 47 120 53 193 16z m590 -168 c15 -40 9 -92 -10 -86 -11 4 -37 85 -38 116 0 28 35 5 48 -30z m-1489 -442 c69 -44 143 -148 251 -354 40 -76 80 -112 124 -112 41 0 62 15 167 117 76 73 91 83 123 83 46 0 86 -36 86 -77 0 -22 -22 -49 -107 -134 -125 -122 -203 -169 -285 -169 -124 0 -171 54 -327 376 -67 136 -121 255 -121 264 0 38 34 40 89 6z m-1858 -26 c22 0 6 -30 -18 -35 -16 -3 -44 -10 -64 -15 -20 -6 -44 -10 -53 -10 -22 0 -20 27 3 40 27 14 93 29 109 24 8 -2 18 -4 23 -4z m-254 -76 c2 -6 -34 -29 -81 -52 -128 -62 -216 -162 -260 -296 -4 -10 -9 -16 -12 -13 -12 11 31 131 66 186 42 64 118 135 182 168 44 23 99 27 105 7z m1488 -189 c46 -48 85 -120 140 -255 114 -279 139 -294 328 -197 60 31 111 51 125 49 24 -4 52 -48 52 -81 0 -56 -145 -156 -262 -182 -111 -24 -213 20 -275 117 -36 56 -155 354 -171 429 -21 96 -21 112 -6 134 21 29 31 27 69 -14z m-285 -85 c24 -24 25 -38 5 -67 -19 -28 -57 -39 -176 -53 -53 -7 -101 -15 -107 -19 -7 -4 -9 -43 -5 -117 l6 -110 91 34 c50 19 112 37 137 40 42 4 49 2 64 -21 22 -34 16 -76 -15 -98 -24 -18 -173 -56 -239 -61 l-33 -2 6 -45 c19 -135 127 -175 276 -102 71 34 120 39 145 15 19 -20 13 -47 -24 -94 -60 -77 -191 -120 -303 -100 -100 18 -153 58 -194 146 -30 64 -50 273 -39 414 4 52 7 109 6 127 -1 28 4 35 42 57 57 34 208 74 280 75 44 1 61 -3 77 -19z m-680 -107 c22 -57 32 -109 85 -452 37 -236 27 -314 -39 -297 -52 13 -86 93 -102 239 l-6 58 -31 -6 c-18 -3 -94 -7 -169 -8 l-138 -2 0 -28 c0 -15 5 -71 11 -124 6 -53 8 -106 5 -118 -13 -49 -97 -52 -115 -3 -4 13 -17 84 -27 158 -21 148 -26 538 -7 595 10 32 44 45 67 26 20 -16 36 -114 46 -274 5 -78 10 -143 10 -145 0 -2 4 -1 8 2 5 3 62 12 128 21 114 15 193 29 198 37 2 1 0 46 -3 98 -6 93 2 251 14 270 3 6 15 10 25 10 13 0 25 -16 40 -57z m840 -884 c0 -11 -66 -42 -112 -53 -29 -6 -47 9 -30 26 27 27 142 50 142 27z m-232 -51 c-13 -40 -419 -127 -558 -119 -35 1 -69 16 -60 25 3 2 43 10 90 16 47 6 145 25 218 41 211 47 317 60 310 37z" style="fill: rgb(45, 133, 85);"/>
    <path d="M12114 7965 c-26 -64 -19 -134 26 -223 81 -162 197 -215 231 -104 30 103 -62 297 -165 346 -54 25 -75 21 -92 -19z" style="fill: rgb(45, 133, 85);"/>
    <path d="M12961 8606 c-12 -14 -10 -26 17 -84 53 -116 71 -168 91 -269 24 -119 36 -153 55 -153 28 0 42 102 26 190 -14 81 -85 231 -137 289 -35 39 -40 42 -52 27z"/>
    <path d="M4935 8555 c-208 -56 -412 -236 -546 -482 -27 -50 -32 -66 -23 -80 23 -38 44 -26 154 85 133 135 201 192 332 279 119 78 188 138 188 164 0 20 -26 49 -43 48 -7 0 -34 -6 -62 -14z"/>
    <path d="M5640 8339 c-393 -43 -669 -172 -879 -410 -212 -239 -395 -619 -471 -975 -31 -145 -38 -389 -15 -524 42 -256 149 -454 354 -657 90 -89 137 -127 414 -332 218 -161 226 -179 237 -566 8 -266 17 -339 53 -441 40 -112 87 -167 124 -144 10 7 35 53 57 103 51 122 208 428 280 549 l58 98 52 -47 c90 -82 241 -133 390 -133 150 0 517 65 697 124 253 82 461 223 631 425 436 522 512 1113 217 1691 -127 249 -289 457 -534 683 -374 345 -667 496 -1050 542 -159 19 -499 27 -615 14z m590 -101 c202 -20 427 -91 578 -182 199 -121 384 -269 557 -448 562 -577 718 -1233 429 -1810 -136 -272 -338 -501 -560 -635 -163 -98 -374 -159 -740 -212 -278 -41 -414 -20 -556 86 -25 20 -52 46 -59 59 -16 30 -40 31 -66 2 -55 -60 -257 -407 -333 -571 -25 -53 -48 -97 -51 -97 -7 0 -33 88 -50 170 -6 30 -14 183 -18 340 -6 284 -6 285 -34 344 -40 87 -143 182 -332 308 -178 118 -269 193 -358 294 -226 260 -319 544 -288 884 21 223 89 449 204 680 164 326 316 501 549 633 97 55 288 120 418 143 180 31 472 36 710 12z"/>
    <path d="M5695 8044 c-255 -25 -320 -64 -107 -64 166 0 369 -17 495 -40 199 -38 354 -100 622 -250 80 -45 153 -80 162 -78 9 2 21 11 27 20 14 23 -14 52 -124 127 -194 133 -431 223 -700 265 -99 16 -306 27 -375 20z"/>
    <path d="M5065 7591 c-102 -62 -180 -264 -192 -497 -14 -259 83 -382 327 -417 41 -6 76 -12 78 -13 9 -6 -31 -77 -65 -114 -110 -123 -258 -103 -328 45 -28 58 -66 85 -123 85 -94 0 -137 -104 -97 -237 47 -159 300 -262 508 -208 84 22 130 49 191 110 100 102 157 247 201 516 32 195 47 371 43 503 -2 91 -6 111 -20 120 -13 8 -23 8 -35 0 -22 -13 -92 -204 -149 -404 -25 -85 -46 -155 -48 -157 -1 -2 -28 -8 -59 -14 -105 -21 -174 12 -197 96 -17 62 -7 233 21 345 30 123 36 222 14 243 -21 22 -33 21 -70 -2z"/>
    <path d="M6970 7563 c0 -10 36 -49 81 -86 63 -53 86 -68 107 -65 21 2 28 9 30 29 3 22 -6 33 -46 63 -54 40 -127 75 -154 76 -11 0 -18 -7 -18 -17z"/>
    <path d="M5942 7393 c-22 -18 -50 -86 -152 -373 -26 -74 -77 -207 -113 -295 -125 -308 -161 -445 -162 -620 0 -81 5 -124 18 -162 39 -112 162 -191 311 -200 134 -9 206 25 206 97 0 56 -23 74 -192 149 -87 38 -108 70 -108 163 0 76 11 137 47 258 38 127 33 122 96 104 28 -9 93 -38 144 -65 50 -27 104 -49 118 -49 17 0 39 12 61 34 29 29 34 41 34 83 0 41 -5 54 -27 76 -40 37 -148 85 -234 103 -40 8 -75 17 -77 19 -2 2 14 52 37 112 49 131 86 260 96 331 4 28 9 52 11 52 2 0 44 -24 92 -54 220 -135 319 -186 366 -186 80 0 133 81 101 155 -12 31 -30 42 -157 103 -166 80 -251 116 -363 150 -115 35 -128 36 -153 15z"/>
    <path d="M6831 7049 c-167 -33 -275 -230 -256 -464 4 -44 22 -158 41 -253 37 -186 45 -305 24 -382 -26 -95 -122 -142 -195 -94 -39 26 -50 67 -36 138 20 98 -13 156 -87 156 -40 0 -92 -23 -118 -52 -48 -52 -59 -88 -58 -188 0 -82 4 -103 28 -152 62 -131 194 -204 350 -196 102 5 175 37 250 108 101 96 149 224 149 400 0 93 -5 127 -48 295 -42 163 -49 204 -49 290 -1 184 44 226 216 201 67 -10 75 -1 63 61 -17 92 -150 156 -274 132z"/>
    <path d="M7359 6830 c-16 -9 -44 -79 -180 -450 -142 -388 -139 -377 -139 -468 0 -75 2 -85 25 -107 18 -19 35 -25 66 -25 88 0 147 105 218 390 27 107 57 221 65 253 43 157 56 309 33 377 -10 29 -18 35 -42 37 -16 2 -37 -1 -46 -7z"/>
    <path d="M4826 5991 c-7 -11 41 -76 90 -122 111 -104 318 -239 366 -239 24 0 34 26 17 46 -7 8 -56 41 -108 72 -100 58 -138 85 -264 190 -75 62 -91 70 -101 53z"/>
    <path d="M6965 5731 c-56 -23 -107 -103 -121 -188 -9 -56 24 -126 67 -144 64 -26 135 -4 164 50 20 39 35 163 25 208 -15 66 -75 98 -135 74z"/>
    <path d="M5347 5544 c-3 -4 5 -21 18 -38 35 -46 55 -99 55 -146 0 -47 24 -65 46 -35 33 44 3 149 -55 198 -32 27 -52 33 -64 21z"/>
    <path d="M6833 5198 c-82 -30 -109 -58 -57 -58 46 0 162 31 175 47 11 13 10 18 -6 29 -23 17 -13 19 -112 -18z"/>
    <path d="M6560 5165 c-45 -17 -241 -19 -377 -3 -57 6 -106 8 -110 4 -16 -16 18 -42 78 -59 82 -24 319 -35 394 -18 57 13 102 50 92 75 -8 19 -30 19 -77 1z"/>
    <path d="M7930 8252 c-39 -19 -60 -53 -60 -95 0 -65 76 -119 136 -97 53 20 74 49 74 100 0 50 -22 84 -67 101 -34 12 -43 12 -83 -9z"/>
    <path d="M2235 8084 c-323 -58 -576 -267 -695 -576 -105 -271 -151 -563 -130 -822 36 -456 244 -807 625 -1056 108 -70 213 -119 385 -181 310 -110 338 -135 584 -504 157 -235 177 -272 185 -344 6 -57 30 -86 51 -65 28 28 42 174 49 519 9 412 12 425 112 570 148 211 221 395 275 690 26 141 27 499 1 635 -95 509 -400 897 -842 1069 -187 74 -415 98 -600 65z m450 -98 c467 -124 820 -533 915 -1061 27 -150 35 -307 21 -444 -35 -341 -134 -632 -276 -812 -122 -154 -125 -167 -125 -596 0 -173 -4 -313 -9 -313 -5 0 -15 15 -22 33 -19 45 -234 367 -306 458 -106 133 -222 203 -508 309 -251 93 -392 178 -537 324 -184 184 -311 425 -349 661 -16 103 -17 375 0 490 43 303 155 581 296 734 98 107 231 183 395 226 86 23 109 25 250 21 128 -3 172 -8 255 -30z"/>
    <path d="M2305 7891 c-44 -11 -75 -30 -75 -46 0 -18 93 -21 134 -5 31 11 34 35 7 50 -22 11 -23 11 -66 1z"/>
    <path d="M2088 7836 c-72 -26 -135 -71 -224 -160 -77 -77 -98 -107 -137 -186 -43 -89 -70 -190 -51 -190 5 1 30 44 56 98 84 175 176 266 356 353 57 28 106 58 109 66 12 32 -44 42 -109 19z"/>
    <path d="M2744 7466 c-34 -34 -39 -50 -36 -126 l2 -35 -26 33 c-57 73 -145 89 -195 36 -77 -82 48 -287 223 -368 40 -19 90 -37 110 -40 33 -6 39 -3 63 28 51 67 67 137 63 271 -4 137 -19 182 -73 215 -50 31 -91 26 -131 -14z"/>
    <path d="M2082 7214 c-33 -23 -52 -67 -52 -124 l0 -50 -36 39 c-85 94 -204 69 -204 -43 0 -124 161 -288 325 -331 57 -14 60 -14 81 6 84 79 109 360 40 461 -37 56 -107 75 -154 42z"/>
    <path d="M1595 6681 c-8 -15 21 -156 52 -251 35 -106 94 -228 147 -308 106 -158 168 -171 76 -16 -87 148 -180 342 -220 461 -41 123 -44 130 -55 114z"/>
    <path d="M2839 6591 c-31 -32 -31 -33 -27 -114 5 -96 38 -178 105 -263 43 -54 124 -114 154 -114 31 0 123 100 157 170 35 72 62 167 62 216 0 78 -48 134 -115 134 -37 0 -47 -5 -78 -39 -21 -23 -39 -56 -43 -77 l-7 -37 -19 50 c-24 66 -56 94 -112 100 -41 5 -48 2 -77 -26z"/>
    <path d="M3451 6476 c-15 -18 -10 -108 5 -113 7 -2 16 18 22 49 13 70 2 99 -27 64z"/>
    <path d="M2365 6401 c-41 -18 -60 -51 -60 -105 0 -28 4 -61 8 -74 8 -22 7 -21 -39 8 -66 41 -124 42 -165 1 -113 -113 139 -341 376 -341 l62 0 19 48 c50 128 -2 390 -89 447 -31 20 -85 28 -112 16z"/>
    <path d="M3422 6243 c-11 -32 -31 -89 -43 -128 -12 -38 -48 -130 -81 -204 -78 -180 -64 -191 33 -24 22 40 56 108 74 150 35 80 70 226 61 250 -10 26 -24 12 -44 -44z"/>
    <path d="M1940 5922 c0 -25 64 -85 86 -80 33 6 24 32 -22 66 -51 37 -64 40 -64 14z"/>
    <path d="M2700 5553 c0 -5 17 -19 38 -33 68 -45 122 -102 154 -161 49 -89 92 -75 53 16 -20 50 -109 140 -161 164 -44 21 -84 27 -84 14z"/>
    <path d="M2973 5218 c15 -38 47 -51 47 -19 0 23 -25 51 -46 51 -12 0 -12 -5 -1 -32z"/>
    <path d="M15080 8060 c-63 -4 -230 -8 -370 -9 -367 -2 -755 -18 -830 -34 -36 -7 -78 -21 -95 -29 -29 -15 -30 -19 -31 -85 -1 -37 -9 -129 -19 -203 -13 -103 -18 -238 -22 -568 -7 -554 6 -663 89 -802 19 -30 39 -73 46 -96 28 -94 106 -161 227 -195 63 -17 84 -20 450 -64 385 -47 383 -46 414 -130 11 -30 23 -66 25 -80 20 -109 109 -344 138 -361 31 -20 92 94 143 269 44 148 84 222 135 248 19 10 85 25 145 34 70 9 126 23 155 38 51 26 104 90 120 145 23 73 32 274 37 772 7 759 -15 915 -146 1033 -22 20 -59 46 -81 57 -105 53 -298 75 -530 60z m405 -104 c71 -18 109 -40 155 -88 92 -96 103 -192 104 -898 1 -585 0 -593 -67 -682 -45 -58 -98 -86 -214 -109 -196 -39 -238 -83 -297 -311 -22 -84 -59 -178 -70 -178 -2 0 -16 51 -31 113 -57 232 -126 329 -260 366 -22 6 -152 23 -290 37 -446 45 -555 73 -616 157 -41 57 -56 117 -76 312 -15 140 -18 263 -18 692 0 383 3 525 12 534 35 35 120 41 675 48 301 4 551 10 554 14 14 13 386 7 439 -7z"/>
    <path d="M13997 7846 c-89 -24 -135 -99 -122 -195 10 -74 25 -85 25 -21 2 119 41 160 153 160 63 0 97 12 97 35 0 35 -68 44 -153 21z"/>
    <path d="M15323 7843 c-31 -12 -9 -30 49 -41 107 -20 160 -72 189 -185 12 -50 36 -68 56 -41 37 50 -54 206 -149 255 -35 18 -115 25 -145 12z"/>
    <path d="M14243 7833 c-38 -5 -44 -27 -13 -43 22 -12 60 -4 72 14 7 10 -9 37 -21 34 -3 0 -21 -3 -38 -5z"/>
    <path d="M15088 7608 c-8 -7 -59 -78 -111 -158 -53 -80 -112 -163 -131 -184 l-34 -40 -6 70 c-16 174 -50 294 -84 294 -45 0 -46 -7 -45 -465 0 -238 4 -438 8 -445 4 -7 23 -19 42 -27 31 -12 38 -12 58 1 34 22 45 74 45 204 l0 114 51 -44 c138 -118 183 -148 220 -148 40 0 64 20 74 61 9 38 -33 82 -155 164 -55 37 -103 71 -105 75 -3 5 28 60 69 122 94 145 142 242 162 324 11 51 12 69 3 80 -14 17 -40 18 -61 2z"/>
    <path d="M15342 7577 c-23 -27 -34 -108 -39 -287 -9 -306 19 -480 80 -495 66 -17 92 46 84 200 -17 325 -44 552 -67 581 -15 17 -44 18 -58 1z"/>
    <path d="M14194 7502 c-72 -47 -131 -128 -166 -229 -20 -59 -23 -87 -23 -208 0 -157 15 -215 75 -299 90 -125 268 -131 383 -12 162 168 180 534 34 694 -53 57 -107 84 -182 89 -56 4 -64 2 -121 -35z m131 -121 c45 -21 79 -54 93 -91 38 -101 10 -330 -51 -421 -45 -67 -135 -43 -180 48 -67 132 -61 311 14 432 35 58 56 63 124 32z"/>
    <path d="M15594 7476 c-8 -35 4 -66 26 -66 27 0 31 12 19 53 -11 42 -36 49 -45 13z"/>
    <path d="M15356 6719 c-41 -32 -30 -90 20 -109 26 -10 61 1 76 24 16 24 8 75 -14 90 -30 21 -50 20 -82 -5z"/>
    <path d="M15613 6558 c-5 -7 -22 -39 -37 -70 -30 -63 -65 -97 -137 -134 -51 -26 -60 -38 -33 -48 39 -15 137 36 187 97 34 42 58 99 55 129 -3 34 -19 46 -35 26z"/>
    <path d="M13920 6515 c0 -93 83 -162 244 -204 83 -21 101 -20 111 7 8 21 -20 42 -55 42 -47 0 -159 37 -195 64 -19 15 -47 49 -60 77 -30 58 -45 63 -45 14z"/>
    <path d="M14333 6333 c-25 -10 -12 -32 24 -42 30 -9 41 -8 53 5 13 14 13 17 -4 30 -20 14 -50 17 -73 7z"/>
    <path d="M9225 7853 c-55 -8 -183 -43 -230 -63 -104 -45 -212 -137 -188 -161 5 -5 36 4 79 25 96 47 178 71 403 116 107 21 199 44 205 50 8 8 6 15 -8 26 -15 10 -48 14 -125 13 -58 -1 -119 -4 -136 -6z"/>
    <path d="M9583 7823 c-18 -7 -16 -40 3 -47 30 -11 111 -6 123 8 24 29 2 46 -58 45 -31 0 -62 -3 -68 -6z"/>
    <path d="M12389 6480 c-48 -25 -96 -81 -108 -127 -6 -20 -9 -39 -7 -41 3 -2 21 15 42 38 21 23 64 55 95 71 66 33 76 44 59 64 -16 20 -37 18 -81 -5z"/>
    <path d="M12226 6151 c-9 -14 3 -148 19 -216 31 -135 106 -313 113 -269 5 33 -59 366 -89 462 -10 30 -31 42 -43 23z"/>
    <path d="M8844 5896 c-13 -35 69 -128 161 -181 125 -74 277 -115 422 -115 106 0 135 7 131 29 -5 26 -88 59 -215 86 -178 38 -212 51 -363 135 -106 59 -128 66 -136 46z"/>
    <path d="M13288 5684 c-27 -11 -43 -28 -58 -58 -25 -53 -25 -67 0 -116 35 -70 116 -91 181 -47 41 27 59 60 59 107 0 47 -30 93 -73 113 -42 21 -61 21 -109 1z"/>
    <path d="M9648 5649 c-10 -5 -18 -21 -18 -33 0 -36 48 -43 133 -20 22 7 23 50 1 58 -25 9 -97 6 -116 -5z"/>
    <path d="M13540 5329 c-158 -67 -182 -275 -43 -373 90 -63 230 -36 291 56 38 58 43 155 10 217 -35 66 -92 102 -170 107 -34 2 -74 -1 -88 -7z"/>
    <path d="M10645 4994 c-126 -34 -364 -109 -536 -170 -386 -137 -577 -203 -1099 -378 -283 -96 -643 -217 -800 -269 -157 -53 -373 -121 -480 -152 -312 -89 -457 -174 -503 -296 -19 -53 -59 -228 -126 -559 -27 -135 -65 -302 -85 -370 -75 -271 -75 -387 0 -485 14 -19 65 -69 113 -111 134 -120 212 -193 401 -379 249 -245 315 -283 469 -272 56 3 113 17 197 46 232 81 351 120 509 166 275 80 480 144 579 179 l95 34 80 -93 c124 -144 289 -313 491 -502 144 -134 191 -173 212 -173 42 0 42 28 2 116 -78 170 -128 341 -169 580 -15 82 -33 177 -42 212 -9 34 -14 64 -12 65 2 1 87 30 189 64 723 242 1102 374 1148 397 105 53 160 134 235 347 25 68 101 264 170 434 69 171 135 343 147 384 27 87 23 156 -11 222 -21 41 -125 152 -249 264 -112 102 -468 432 -545 506 -117 112 -146 135 -204 164 -51 26 -135 39 -176 29z m163 -119 c27 -15 112 -86 188 -157 77 -72 252 -235 389 -363 138 -128 272 -256 298 -284 45 -51 77 -123 77 -176 0 -62 -60 -233 -202 -575 -50 -118 -110 -268 -134 -333 -90 -241 -90 -241 -356 -334 -184 -65 -321 -112 -968 -335 -113 -39 -210 -77 -216 -84 -13 -16 0 -118 42 -354 32 -178 45 -235 90 -374 19 -59 33 -110 31 -112 -5 -5 -530 524 -594 598 -26 31 -53 57 -60 57 -6 1 -91 -23 -190 -53 -98 -30 -295 -88 -438 -131 -297 -88 -435 -129 -603 -181 -85 -26 -136 -36 -187 -37 -127 -1 -146 13 -652 485 -284 264 -296 291 -245 543 17 83 54 258 82 390 28 132 60 296 71 365 32 199 62 284 123 348 17 19 44 40 59 49 16 8 164 59 330 113 481 157 2527 843 2687 900 80 28 161 55 180 60 59 15 144 5 198 -25z"/>
    <path d="M10464 4620 c-26 -10 -37 -35 -21 -49 7 -5 33 -10 57 -10 25 0 59 -2 75 -3 25 -3 31 1 33 21 3 15 -3 30 -14 38 -20 14 -97 16 -130 3z"/>
    <path d="M10045 4521 c-332 -113 -433 -149 -1045 -369 -245 -88 -530 -188 -635 -222 -337 -110 -503 -185 -644 -290 -144 -107 -274 -280 -211 -280 5 0 16 13 25 29 23 46 122 148 189 196 131 92 228 133 781 325 664 231 867 301 1040 360 395 135 805 287 824 305 17 17 7 45 -16 45 -10 0 -148 -45 -308 -99z"/>
    <path d="M11105 4340 c-14 -23 307 -330 344 -330 41 0 -14 63 -184 210 -165 143 -152 133 -160 120z"/>
    <path d="M10553 4316 c-60 -19 -106 -50 -157 -107 -69 -77 -100 -149 -105 -242 -3 -71 0 -84 28 -142 49 -100 147 -163 286 -185 116 -18 239 -105 215 -151 -15 -27 -49 -33 -160 -25 -93 6 -99 6 -124 -16 -18 -16 -28 -37 -32 -69 -6 -41 -3 -49 22 -77 55 -60 209 -78 324 -37 22 8 61 29 86 47 100 72 121 200 53 327 -61 115 -157 178 -310 204 -144 25 -192 61 -192 147 0 89 87 152 228 166 39 4 76 11 83 17 54 43 -77 159 -178 156 -14 0 -44 -6 -67 -13z"/>
    <path d="M9850 4048 c-63 -31 -146 -117 -177 -184 -21 -47 -25 -66 -21 -127 5 -86 31 -146 96 -218 49 -55 98 -83 234 -135 123 -47 145 -64 153 -118 14 -93 -20 -118 -126 -90 -79 21 -120 10 -139 -36 -13 -33 -8 -58 26 -117 35 -61 93 -86 187 -81 82 4 129 24 181 74 59 57 79 107 84 206 4 77 2 92 -22 145 -49 106 -126 167 -261 208 -152 46 -203 84 -225 164 -20 76 12 117 148 185 39 20 72 41 72 47 0 21 -33 67 -60 83 -39 22 -97 20 -150 -6z"/>
    <path d="M9331 3874 c-71 -19 -295 -110 -346 -140 -23 -13 -52 -35 -65 -49 -22 -23 -23 -29 -16 -122 3 -54 13 -127 21 -163 33 -141 140 -489 170 -556 38 -83 94 -149 143 -170 110 -45 293 17 425 144 61 60 64 102 9 131 -29 15 -58 9 -167 -35 -172 -69 -213 -43 -290 188 l-33 99 23 9 c13 5 89 30 169 55 79 25 150 53 157 61 23 28 16 84 -15 110 -15 13 -35 24 -46 24 -10 0 -86 -30 -170 -66 -84 -36 -155 -62 -159 -57 -5 4 -20 44 -36 88 -15 44 -40 106 -56 137 -16 31 -25 59 -21 61 4 3 81 26 172 52 224 63 224 63 248 86 42 38 19 112 -38 123 -14 3 -49 -2 -79 -10z"/>
    <path d="M8340 3521 c-18 -35 -11 -161 14 -256 107 -405 125 -467 177 -602 32 -81 48 -109 83 -141 80 -74 182 -77 343 -10 99 41 123 61 123 104 0 89 -42 104 -185 63 -58 -16 -118 -29 -134 -29 -54 0 -68 31 -176 405 -76 266 -104 343 -146 411 -47 75 -78 93 -99 55z"/>
    <path d="M7817 3356 c-86 -31 -152 -96 -191 -190 -14 -34 -14 -45 0 -114 25 -126 80 -330 119 -442 45 -128 155 -356 190 -394 23 -25 31 -28 66 -22 46 7 214 75 276 111 188 111 225 380 75 547 -42 47 -121 88 -171 88 -30 0 -33 2 -27 23 22 75 27 131 16 181 -33 162 -205 264 -353 212z m96 -137 c54 -15 71 -46 64 -118 -4 -32 -16 -84 -27 -114 -22 -58 -96 -160 -112 -155 -5 2 -27 44 -47 93 -21 50 -52 119 -70 154 -17 36 -31 66 -31 67 0 2 25 21 57 43 60 44 95 50 166 30z m293 -484 c98 -104 48 -234 -120 -314 -72 -34 -86 -37 -86 -19 0 6 -20 62 -45 124 -25 61 -45 114 -45 117 0 8 108 88 147 108 20 10 55 19 76 19 32 0 46 -7 73 -35z"/>
    <path d="M11283 3088 c-41 -45 -75 -140 -54 -152 10 -6 76 74 101 122 24 48 -10 70 -47 30z"/>
    <path d="M7271 2884 c-10 -35 -6 -64 8 -64 9 0 31 82 25 92 -11 17 -24 6 -33 -28z"/>
    <path d="M11115 2888 c-27 -12 -124 -55 -215 -96 -91 -41 -263 -112 -383 -158 -314 -120 -445 -184 -381 -184 27 0 238 65 374 116 69 25 186 67 260 94 186 66 255 95 309 129 59 38 115 96 107 110 -9 14 -11 14 -71 -11z"/>
    <path d="M7234 2715 c-31 -83 0 -345 41 -345 18 0 18 -5 -1 77 -13 53 -15 95 -10 191 7 131 -1 152 -30 77z"/>
    <path d="M7820 1946 c0 -25 97 -115 152 -141 89 -42 218 -29 218 21 0 12 -12 14 -74 8 -66 -6 -79 -4 -130 19 -31 15 -76 41 -99 60 -57 46 -67 51 -67 33z"/>
    <path d="M8361 1918 c-93 -41 -106 -63 -33 -56 59 6 147 46 147 68 0 25 -37 21 -114 -12z"/>
    <path d="M14925 4744 c-344 -40 -628 -191 -792 -421 -25 -35 -47 -63 -49 -63 -2 0 -57 27 -121 59 -224 112 -344 150 -510 158 -224 12 -423 -54 -621 -206 -95 -73 -134 -113 -207 -216 -116 -163 -173 -323 -182 -515 -14 -300 119 -583 370 -793 137 -114 335 -199 517 -222 85 -11 92 -17 75 -65 -50 -143 -133 -513 -169 -757 -30 -203 -32 -229 -10 -237 35 -13 55 -3 119 65 62 66 117 138 352 459 159 216 233 256 395 215 68 -18 185 -72 303 -140 441 -255 788 -343 1144 -291 411 61 725 288 831 600 57 167 62 328 14 514 -63 252 -247 512 -434 612 -45 24 -85 51 -89 59 -10 19 -9 32 14 141 23 108 16 288 -14 405 -42 160 -140 327 -248 425 -172 155 -451 241 -688 214z m328 -113 c256 -67 444 -268 519 -553 31 -117 31 -347 0 -461 -12 -42 -19 -84 -16 -92 3 -8 35 -30 72 -50 232 -128 411 -362 483 -632 15 -55 22 -111 22 -193 2 -127 -10 -191 -54 -287 -118 -263 -378 -442 -727 -499 -73 -12 -139 -15 -267 -11 -270 9 -357 36 -765 243 -314 160 -437 206 -545 206 -38 0 -83 -5 -99 -11 -96 -38 -216 -168 -385 -415 -62 -91 -127 -183 -143 -204 l-31 -37 7 64 c16 147 99 510 171 751 13 44 22 87 19 94 -8 20 -103 58 -121 48 -39 -22 -231 31 -363 99 -228 119 -411 340 -480 579 -34 116 -38 299 -11 413 96 403 474 717 863 717 181 0 352 -55 598 -192 47 -26 94 -48 106 -48 15 0 33 20 67 73 132 208 371 358 654 412 109 20 322 14 426 -14z"/>
    <path d="M14740 4370 c-89 -19 -186 -52 -261 -90 -74 -38 -139 -84 -139 -99 0 -16 3 -15 146 44 254 104 425 113 737 40 84 -20 100 -21 112 -9 23 23 8 40 -63 72 -137 63 -356 80 -532 42z"/>
    <path d="M15415 4210 c-6 -10 15 -50 27 -50 4 0 19 -20 34 -45 27 -48 48 -54 68 -23 8 14 6 26 -9 54 -29 54 -102 93 -120 64z"/>
    <path d="M13258 3980 c-26 -16 -55 -106 -108 -332 -27 -114 -59 -238 -71 -275 -25 -81 -37 -239 -20 -271 41 -77 142 53 193 249 l22 86 95 -34 c53 -19 97 -36 99 -37 1 -2 -4 -32 -13 -67 -23 -98 -30 -210 -15 -253 22 -68 118 -90 169 -38 24 23 29 39 35 105 8 93 36 190 110 393 62 170 86 274 86 367 0 72 -12 90 -57 85 -31 -3 -66 -57 -180 -283 -36 -71 -66 -131 -67 -132 0 -1 -53 9 -116 23 -63 13 -116 24 -116 24 -1 0 2 17 7 38 6 20 12 101 16 180 5 128 4 144 -12 162 -20 22 -32 24 -57 10z"/>
    <path d="M12803 3925 c-126 -140 -189 -389 -150 -591 20 -107 41 -157 64 -152 21 4 22 22 4 163 -25 191 16 378 125 572 45 81 25 85 -43 8z"/>
    <path d="M14033 3789 c-7 -7 -13 -22 -13 -34 0 -11 -6 -29 -14 -40 -64 -92 -238 -511 -264 -634 -13 -65 -14 -87 -4 -133 25 -110 93 -181 219 -228 60 -22 220 -45 256 -36 40 10 76 45 88 86 10 33 9 43 -5 64 -24 38 -64 54 -162 66 -49 6 -99 18 -111 26 -56 36 -72 135 -39 247 16 54 28 68 41 47 3 -5 54 -38 113 -73 208 -125 251 -139 297 -92 19 18 25 35 25 68 0 79 -37 107 -271 200 -64 26 -121 47 -127 47 -7 0 -12 3 -12 6 0 8 63 267 66 272 1 1 90 -41 197 -94 158 -79 207 -98 251 -102 76 -6 106 13 106 67 0 34 -6 45 -46 80 -25 22 -75 51 -112 65 -37 14 -128 49 -202 77 -145 55 -253 73 -277 48z"/>
    <path d="M14830 3550 c-81 -42 -175 -179 -211 -305 -8 -28 -14 -94 -14 -150 0 -86 4 -107 25 -148 44 -87 186 -196 255 -197 11 0 26 -4 34 -9 12 -8 12 -13 -2 -35 -38 -57 -134 -74 -226 -42 -52 19 -81 20 -116 4 -30 -13 -55 -55 -55 -90 1 -37 35 -102 68 -130 56 -47 110 -61 220 -56 90 3 106 7 175 41 111 55 165 135 221 329 72 250 103 500 75 600 -11 42 -43 58 -78 38 -31 -16 -78 -115 -130 -275 l-47 -140 -47 -9 c-55 -10 -107 12 -141 58 -35 46 -28 132 19 236 58 131 86 217 79 245 -12 47 -54 62 -104 35z"/>
    <path d="M15682 3300 c-29 -12 -94 -114 -126 -198 -157 -413 -159 -421 -159 -487 0 -65 20 -117 52 -135 90 -47 181 57 231 265 11 50 37 149 57 220 42 148 52 291 23 319 -21 20 -51 26 -78 16z"/>
    <path d="M16010 3051 c0 -5 17 -58 37 -118 34 -99 37 -117 37 -223 1 -107 -2 -124 -38 -238 -29 -93 -36 -126 -27 -135 16 -16 39 0 73 49 49 72 63 135 62 284 0 120 -3 143 -26 208 -31 85 -86 182 -105 182 -7 0 -13 -4 -13 -9z"/>
    <path d="M12770 3032 c0 -25 51 -104 85 -130 29 -23 75 -30 75 -11 0 11 -144 159 -154 159 -3 0 -6 -8 -6 -18z"/>
    <path d="M15310 2347 c-29 -22 -50 -61 -50 -90 0 -44 57 -97 104 -97 48 0 95 42 103 92 5 33 2 41 -30 73 -28 28 -43 35 -73 35 -22 0 -46 -6 -54 -13z"/>
    <path d="M15897 2188 c-28 -29 -68 -65 -87 -80 -44 -32 -34 -45 22 -28 50 14 138 96 138 128 0 39 -20 33 -73 -20z"/>
    <path d="M8620 4665 c-143 -29 -313 -101 -547 -231 -86 -47 -103 -61 -103 -81 0 -13 6 -26 13 -28 13 -6 636 219 702 253 56 28 82 59 69 80 -14 22 -53 24 -134 7z"/>
    <path d="M2121 4398 c-66 -34 -103 -86 -109 -151 -11 -130 110 -229 234 -192 115 34 166 153 113 263 -43 88 -153 125 -238 80z"/>
    <path d="M2724 4279 c-95 -27 -117 -161 -34 -216 81 -56 190 0 190 97 0 83 -76 142 -156 119z"/>
    <path d="M3860 3679 c-352 -23 -720 -86 -974 -166 -426 -134 -673 -325 -753 -583 -19 -60 -27 -284 -13 -372 14 -92 66 -228 114 -301 21 -32 69 -89 105 -127 36 -37 90 -96 120 -130 202 -231 628 -376 1208 -410 514 -30 1543 11 1860 75 386 78 692 286 833 565 118 234 134 518 41 721 -11 24 -31 80 -46 123 -35 108 -77 179 -161 272 -64 70 -207 158 -333 204 -177 65 -366 89 -886 115 -66 3 -199 10 -295 15 -206 11 -642 11 -820 -1z m1160 -93 c245 -21 526 -53 623 -72 349 -69 570 -246 643 -514 25 -94 23 -270 -5 -375 -79 -298 -297 -529 -615 -655 -230 -91 -509 -126 -1176 -150 -945 -34 -1454 17 -1807 180 -297 138 -458 348 -488 640 -4 36 -12 71 -18 78 -13 16 -2 140 17 203 76 248 357 436 824 553 230 58 471 95 742 115 80 6 163 13 185 15 103 10 903 -4 1075 -18z"/>
    <path d="M2878 3263 c-26 -10 -38 -21 -38 -35 0 -19 4 -20 56 -15 59 6 96 29 87 53 -7 18 -58 17 -105 -3z"/>
    <path d="M5596 3258 c-31 -48 -49 -462 -26 -601 10 -66 45 -143 69 -152 22 -9 48 27 67 93 14 47 15 87 10 261 -10 288 -24 390 -60 413 -21 14 -46 8 -60 -14z"/>
    <path d="M3745 3235 c-30 -29 -32 -58 -5 -85 40 -40 100 -12 100 45 0 24 -7 39 -22 49 -31 22 -45 20 -73 -9z"/>
    <path d="M4428 3249 c-10 -6 -18 -22 -18 -37 0 -54 48 -70 76 -27 15 23 15 27 0 50 -18 27 -31 30 -58 14z"/>
    <path d="M5910 3245 c0 -3 20 -34 44 -69 83 -121 112 -248 96 -420 -9 -91 -3 -116 25 -116 25 0 35 28 43 119 19 218 -30 382 -139 461 -38 27 -69 38 -69 25z"/>
    <path d="M4126 3214 c-9 -8 -16 -24 -16 -35 0 -23 34 -59 55 -59 21 0 55 36 55 58 0 43 -63 67 -94 36z"/>
    <path d="M2691 3209 c-137 -27 -298 -203 -331 -363 -14 -66 -9 -228 6 -233 7 -2 10 5 7 20 -11 55 17 182 56 262 49 99 109 159 215 215 104 55 126 70 126 85 0 10 -26 29 -33 24 -1 -1 -22 -5 -46 -10z"/>
    <path d="M4857 3155 c-87 -22 -93 -27 -113 -102 -17 -59 -19 -106 -19 -363 0 -286 1 -296 23 -345 40 -87 71 -105 108 -64 16 18 19 37 19 143 0 66 -4 157 -9 201 l-8 80 123 -3 c194 -6 306 25 377 102 50 54 66 103 59 174 -8 76 -42 123 -114 158 -55 27 -64 29 -223 31 -118 2 -181 -2 -223 -12z m253 -116 c71 -11 128 -35 143 -60 20 -32 -1 -69 -51 -91 -40 -18 -68 -21 -193 -22 l-146 -1 -7 82 c-3 45 -9 89 -13 98 -6 16 3 17 98 10 57 -3 133 -11 169 -16z"/>
    <path d="M3201 3048 c-193 -9 -354 -29 -376 -48 -22 -18 -18 -48 8 -61 14 -8 90 -14 210 -17 105 -3 187 -9 187 -14 0 -5 -73 -84 -163 -176 -169 -173 -253 -278 -263 -329 -4 -23 0 -37 19 -58 l24 -29 204 -14 c329 -22 597 0 631 52 12 17 9 59 -6 78 -26 35 -63 39 -358 36 -158 -2 -288 1 -288 5 0 9 51 66 205 227 107 113 205 248 205 284 0 28 -24 62 -47 67 -10 3 -96 1 -192 -3z"/>
    <path d="M4477 3038 c-32 -24 -47 -138 -47 -361 0 -295 25 -407 90 -407 58 0 64 54 42 385 -7 110 -16 237 -18 283 -7 100 -26 130 -67 100z"/>
    <path d="M3799 3013 c-29 -76 -33 -138 -21 -348 17 -284 42 -385 98 -399 54 -14 104 28 104 88 0 12 -9 56 -20 97 -11 41 -27 153 -35 249 -21 244 -48 340 -95 340 -13 0 -24 -10 -31 -27z"/>
    <path d="M4146 3022 c-2 -4 -12 -46 -22 -92 -14 -73 -16 -124 -11 -362 3 -171 10 -284 17 -297 13 -26 48 -35 82 -22 53 20 55 34 47 301 -7 240 -14 307 -46 423 -13 48 -19 57 -39 57 -12 0 -25 -4 -28 -8z"/>
    <path d="M6056 2533 c-18 -36 -24 -71 -11 -75 13 -4 58 79 50 92 -11 17 -24 11 -39 -17z"/>
    <path d="M5572 2350 c-28 -26 -29 -80 -3 -104 25 -23 76 -23 101 -1 30 27 27 78 -6 104 -34 27 -64 27 -92 1z"/>
    <path d="M3278 2013 c-36 -6 -35 -19 3 -42 37 -23 108 -36 279 -52 103 -10 135 -9 180 2 35 9 56 20 58 30 4 22 -36 29 -163 29 -57 0 -138 6 -181 14 -110 20 -145 24 -176 19z"/>
    <path d="M3927 1965 c-57 -16 -67 -23 -47 -35 41 -26 130 0 117 34 -7 18 -6 18 -70 1z"/>
    <path d="M12536 2614 c-17 -16 -20 -42 -8 -59 9 -13 121 -84 180 -114 29 -15 57 -21 85 -19 89 6 45 68 -110 152 -110 60 -123 64 -147 40z"/>
    <path d="M12450 2365 c-22 -26 -7 -47 48 -66 29 -10 80 -32 114 -49 69 -35 101 -36 106 -3 5 36 -16 62 -72 88 -93 43 -175 55 -196 30z"/>
    <path d="M10534 2055 c-44 -67 -37 -179 17 -294 36 -79 55 -101 84 -101 36 0 36 25 2 97 -28 61 -32 80 -35 173 -1 58 -5 115 -8 128 -6 30 -39 29 -60 -3z"/>
    <path d="M10305 1958 c-29 -99 -14 -212 44 -327 32 -62 51 -77 81 -61 31 17 32 45 7 127 -14 43 -32 125 -41 182 -17 109 -26 131 -57 131 -13 0 -22 -14 -34 -52z"/>
  </g>
</svg>