<?xml version="1.0" encoding="utf-8"?>
<svg version="1.0" width="1978.000000pt" height="1484.000000pt" viewBox="0 0 1978.000000 1484.000000" preserveAspectRatio="xMidYMid meet" xmlns="http://www.w3.org/2000/svg">
  <g transform="translate(0.000000,1484.000000) scale(0.100000,-0.100000)" fill="#000000" stroke="none">
    <path d="M14142 14234 c-51 -26 -66 -57 -116 -241 -141 -524 -329 -1043 -629 -1738 -173 -399 -436 -965 -449 -965 -4 0 -307 332 -674 738 -367 405 -675 746 -686 757 -15 17 -21 18 -38 7 -17 -11 -20 -10 -20 7 0 18 -13 19 -222 25 -503 13 -7563 47 -7618 36 -186 -35 -343 -188 -386 -376 -14 -65 -11 -142 50 -1424 36 -745 68 -1394 71 -1441 l6 -87 -68 -6 c-37 -4 -90 -12 -118 -18 -249 -55 -444 -286 -461 -543 -3 -44 35 -1792 85 -3885 l91 -3805 25 -52 c15 -29 40 -64 56 -78 l31 -25 -570 0 c-314 0 -577 -3 -586 -6 -14 -5 -16 -43 -16 -318 0 -229 3 -315 12 -324 9 -9 1730 -12 7685 -12 7575 0 7672 0 7683 19 14 27 14 595 0 622 -10 18 -26 19 -456 19 l-446 0 31 25 c16 14 41 49 56 78 l25 52 15 968 c8 533 17 973 20 978 4 5 12 9 19 9 33 0 138 65 185 115 89 94 177 302 220 516 31 159 41 250 41 379 0 158 -19 211 -104 296 -56 56 -70 64 -181 104 -66 24 -131 47 -144 52 l-23 8 6 318 c17 811 56 3821 51 3851 -19 103 -124 235 -226 284 -73 36 -145 47 -316 47 -79 0 -143 2 -143 5 0 3 16 37 35 75 248 492 436 1111 509 1675 41 317 47 869 12 1165 -37 315 -109 648 -193 900 -33 101 -42 118 -73 138 -28 19 -44 23 -79 19 -63 -7 -91 -42 -132 -162 -86 -256 -253 -549 -817 -1438 l-170 -268 -6 53 c-3 29 -8 105 -11 168 -38 772 -238 1667 -547 2454 -89 225 -114 258 -204 263 -41 3 -69 -1 -92 -13z m121 -101 c18 -21 73 -155 162 -398 241 -657 392 -1360 457 -2120 20 -231 16 -934 -5 -1165 -34 -358 -89 -700 -168 -1032 l-43 -178 -75 0 c-120 -1 -1415 31 -1427 35 -23 7 142 638 291 1120 143 460 301 886 479 1286 31 70 56 130 56 135 0 4 -7 16 -17 26 -19 21 -56 24 -71 5 -21 -25 -222 -509 -315 -757 -183 -492 -349 -1037 -478 -1575 -28 -115 -53 -216 -55 -222 -2 -9 -24 -13 -64 -13 l-60 0 0 37 c0 21 20 453 45 959 l45 922 91 188 c249 516 540 1192 718 1667 96 256 210 606 277 852 31 116 63 218 72 228 8 9 27 17 42 17 15 0 34 -8 43 -17z m-6346 -1387 c1965 -12 3576 -25 3579 -29 4 -4 -11 -245 -33 -535 -46 -587 -46 -591 12 -709 60 -121 179 -211 310 -233 33 -6 296 -19 584 -29 402 -15 527 -23 537 -33 10 -11 0 -264 -55 -1406 -38 -766 -71 -1395 -73 -1398 -3 -3 -15 9 -26 27 l-20 31 24 42 c28 48 32 126 9 170 -10 19 -12 33 -6 40 6 7 13 30 17 52 9 58 -14 98 -77 129 l-50 26 7 72 c5 64 4 75 -15 98 -29 37 -81 59 -139 59 -49 0 -53 -2 -138 -65 -16 -12 -27 -13 -48 -6 -17 7 -35 7 -51 1 -33 -13 -50 -5 -74 35 -41 70 -144 88 -226 41 -80 -47 -116 -168 -84 -277 18 -57 49 -82 114 -87 39 -3 56 -9 59 -21 3 -9 21 -103 42 -209 31 -164 35 -197 24 -217 -14 -27 0 -98 52 -263 39 -125 45 -127 180 -78 57 21 110 40 119 43 12 3 20 -9 33 -57 10 -34 16 -63 14 -65 -2 -1 -22 -12 -44 -23 -106 -53 -306 -232 -366 -327 -21 -33 -27 -57 -32 -137 -27 -419 -189 -785 -413 -932 l-42 -28 -147 53 -146 52 38 19 c97 47 147 141 123 231 -13 50 -82 124 -139 151 -44 20 -62 21 -645 26 l-600 5 -868 310 -868 310 243 3 c134 1 468 6 743 10 486 8 501 8 541 29 84 44 129 123 122 215 -7 92 -75 172 -167 198 -23 6 -758 6 -2171 -2 -2124 -11 -2136 -11 -2299 10 -167 20 -203 18 -214 -12 -5 -14 -28 -16 -145 -16 -131 0 -141 -1 -193 -27 -79 -41 -113 -93 -117 -187 -6 -107 34 -182 122 -229 41 -22 43 -22 496 -19 l455 3 452 -298 452 -298 -902 -5 -902 -5 -58 -29 c-63 -31 -110 -84 -126 -144 -10 -35 0 -116 18 -150 19 -34 87 -92 136 -114 l50 -23 1242 4 1242 4 52 -34 c32 -21 207 -91 453 -181 l401 -147 -1740 -3 -1740 -3 -41 -22 c-171 -91 -163 -340 13 -420 l54 -25 2347 10 2347 10 1530 -560 c841 -307 1530 -560 1531 -561 2 -2 -153 -3169 -155 -3174 -1 -2 -1918 -3 -4261 -3 l-4260 0 0 24 c0 13 -119 2487 -265 5498 -208 4289 -263 5484 -255 5522 31 144 141 263 278 301 63 18 53 18 4239 -9z m7234 -3013 c-12 -20 -14 -14 -5 12 4 9 9 14 11 11 3 -2 0 -13 -6 -23z m-120 -268 c-55 -120 -106 -223 -112 -229 -8 -8 -10 -8 -8 0 9 28 213 453 216 450 2 -2 -41 -101 -96 -221z m-11587 -307 c3 -18 86 -1732 186 -3808 100 -2076 184 -3819 187 -3872 l6 -98 -216 0 c-128 0 -227 4 -244 11 -35 13 -80 55 -99 92 -12 23 -30 620 -105 3590 -49 1959 -88 3625 -87 3702 3 127 6 145 29 195 15 30 42 73 62 96 54 61 173 119 254 123 18 1 23 -6 27 -31z m10996 -264 c1077 -28 1336 -38 1385 -50 88 -23 185 -78 245 -139 66 -66 95 -112 121 -195 19 -60 21 -87 19 -335 -2 -481 -48 -3326 -53 -3331 -3 -3 -15 -3 -27 1 l-21 7 7 273 7 274 -31 30 c-39 40 -74 40 -113 2 l-29 -29 0 -247 c0 -144 -4 -245 -9 -243 -5 2 -408 145 -895 318 -880 313 -885 315 -879 340 3 14 32 68 64 121 76 125 168 319 208 439 144 439 110 847 -105 1270 -118 233 -248 407 -441 590 l-104 98 -107 7 c-149 11 -456 -2 -585 -23 -123 -21 -107 -28 -177 77 l-43 64 13 261 c6 144 13 261 13 262 2 1 1435 -38 2237 -60 552 -16 578 -18 675 -67 66 -33 141 -118 160 -182 20 -63 20 -261 1 -1462 -10 -655 -10 -805 0 -826 16 -33 65 -52 99 -39 58 22 54 -39 72 1158 18 1217 20 1160 -44 1292 -36 75 -132 169 -213 208 -147 72 -86 68 -1540 107 -723 19 -1343 35 -1377 35 -54 0 -63 3 -63 18 0 17 8 18 103 15 56 -2 698 -20 1427 -39z m-2060 -94 c21 -11 40 -25 43 -32 2 -8 15 -97 28 -199 l23 -185 -20 -35 c-25 -43 -55 -46 -179 -21 l-90 19 -37 179 c-53 258 -51 244 -36 244 7 1 40 14 73 31 50 24 68 28 109 24 27 -4 66 -15 86 -25z m348 -219 c4 -51 -13 -98 -40 -112 -11 -6 -22 -9 -24 -7 -4 5 -24 104 -24 124 0 22 32 45 59 42 23 -3 26 -8 29 -47z m-94 -163 c6 -4 20 -8 32 -8 16 0 53 -48 157 -205 116 -173 137 -211 137 -243 0 -52 -21 -77 -98 -116 -127 -63 -198 -87 -227 -76 -30 11 -30 11 -71 160 l-31 115 36 20 36 21 3 184 c2 102 6 178 9 170 3 -8 11 -18 17 -22z m1081 -377 c54 -11 53 -55 -6 -379 l-51 -283 77 -80 78 -80 -6 -472 c-4 -260 -11 -537 -16 -617 -14 -198 -1 -266 86 -457 3 -8 -3 -13 -16 -13 -18 0 -1170 404 -1175 412 -1 2 -24 68 -50 148 -117 356 -293 816 -427 1122 l-70 159 35 48 c74 100 304 291 351 291 8 0 16 -13 20 -30 9 -43 41 -78 81 -89 46 -13 99 3 234 71 123 62 150 92 150 168 0 46 1 48 33 53 39 7 178 26 227 30 62 6 414 5 445 -2z m-7875 -80 l545 -67 -3 -57 c-3 -66 -42 -197 -84 -282 -44 -88 -98 -175 -109 -175 -7 0 -771 499 -937 612 -49 34 -48 48 6 41 20 -3 282 -35 582 -72z m8259 -275 c172 -229 288 -472 341 -715 26 -119 42 -308 34 -399 l-7 -74 -51 7 c-28 5 -100 11 -160 14 l-109 6 -19 95 c-56 278 -177 525 -344 700 l-72 75 54 295 c29 162 54 297 54 300 2 13 216 -220 279 -304z m-6902 109 c383 -47 700 -88 705 -91 18 -11 1 -254 -28 -399 -37 -183 -129 -411 -229 -566 -59 -92 -152 -209 -166 -209 -9 0 -1169 759 -1192 780 -5 5 14 46 41 93 87 148 141 292 157 421 4 31 9 56 12 56 3 0 318 -38 700 -85z m5047 -761 c64 -138 116 -259 116 -270 0 -48 -45 -196 -85 -279 -29 -61 -62 -110 -102 -152 l-58 -62 -113 42 -114 42 -29 90 c-16 50 -29 95 -29 100 0 6 20 37 45 70 96 129 176 328 217 539 24 128 27 140 32 135 2 -2 56 -117 120 -255z m1669 29 c189 -327 253 -817 171 -1313 -9 -52 -19 -98 -22 -101 -4 -4 -32 -4 -64 -2 l-56 5 -35 77 c-77 169 -78 175 -58 616 6 132 11 365 11 518 0 152 2 277 4 277 2 0 24 -35 49 -77z m-1440 -528 c123 -345 150 -425 144 -432 -4 -3 -106 29 -226 72 l-220 78 49 55 c27 31 67 90 89 131 40 78 91 225 91 263 0 12 2 19 5 17 2 -3 33 -86 68 -184z m-715 -101 c9 -31 8 -35 -5 -30 -8 3 -26 9 -40 12 l-24 6 22 24 c30 32 34 30 47 -12z m2617 -25 c89 -13 86 -6 49 -151 -44 -174 -141 -394 -248 -560 -44 -70 -61 -75 -52 -15 4 23 14 87 23 142 12 72 17 169 17 348 l1 247 67 0 c37 0 101 -5 143 -11z m-464 -804 c92 -8 174 -18 183 -21 27 -10 18 -27 -11 -20 -92 21 -219 14 -400 -23 -24 -4 -43 -6 -43 -2 0 9 84 80 95 80 6 1 85 -6 176 -14z m-906 -1166 c50 -17 92 -33 94 -35 6 -5 38 -178 81 -439 107 -650 163 -1269 183 -2024 l2 -85 32 -8 c32 -8 37 -19 55 -133 3 -17 -13 -26 -112 -61 -211 -75 -357 -152 -436 -232 l-42 -42 -159 0 -160 0 4 48 c2 26 35 706 73 1512 38 806 73 1497 76 1537 l6 72 106 -39 c59 -21 148 -53 197 -71z m393 -144 c128 -46 241 -89 251 -94 23 -13 29 -88 41 -534 13 -472 -17 -1745 -41 -1772 -12 -13 -133 -18 -189 -8 l-45 9 -7 204 c-24 739 -95 1431 -214 2083 -36 197 -36 197 -31 197 2 0 107 -38 235 -85z m674 -398 c200 -364 291 -548 525 -1062 105 -231 334 -760 348 -803 5 -18 13 -22 32 -20 24 3 28 -3 49 -65 19 -55 21 -73 12 -98 -6 -17 -8 -52 -4 -81 11 -78 63 -235 106 -316 l39 -72 -714 0 -715 0 0 30 c0 53 -22 134 -56 209 -29 62 -34 85 -34 147 0 62 3 75 19 84 25 13 28 36 41 345 29 675 30 1584 4 1902 l-7 81 125 -45 125 -45 105 -191z m358 21 c107 -39 200 -76 206 -82 6 -6 33 -72 59 -146 282 -806 532 -1567 518 -1581 -13 -13 -139 -39 -188 -39 l-41 0 -64 153 c-288 687 -647 1437 -877 1830 -4 7 32 -6 387 -135z m1065 -390 c347 -126 633 -233 637 -237 4 -4 1 -405 -6 -893 -16 -963 -12 -912 -73 -970 -46 -44 -71 -48 -304 -48 -209 0 -220 1 -215 18 4 10 -5 58 -19 107 -57 197 -138 348 -214 398 -32 21 -39 33 -53 91 l-16 68 24 10 c13 6 24 15 24 19 0 27 -404 1242 -533 1601 l-45 127 81 -30 c45 -17 366 -134 712 -261z m-291 -1553 c9 -35 16 -69 16 -74 0 -16 -59 -43 -87 -39 -22 3 -29 13 -53 80 l-27 76 46 10 c88 18 87 19 105 -53z m-1596 -222 l-3 -78 -43 1 c-23 0 -44 3 -47 6 -3 3 -12 37 -19 77 l-14 71 65 0 64 0 -3 -77z" style="paint-order: stroke markers; fill-rule: evenodd; fill: rgb(45, 133, 85);"/>
    <path d="M3980 11745 l0 -65 68 0 c102 0 232 -18 258 -35 13 -8 34 -34 46 -58 12 -23 200 -499 418 -1057 l397 -1015 96 -3 95 -3 16 53 c8 29 97 355 196 723 100 369 185 673 189 677 4 4 110 -324 237 -730 l229 -737 75 0 c69 0 75 2 78 21 2 16 9 20 25 17 21 -4 39 41 301 764 404 1111 403 1110 486 1187 55 52 123 76 212 76 l58 0 0 65 0 65 -37 0 c-21 0 -204 7 -408 15 -203 8 -405 15 -447 15 l-78 0 0 -63 0 -64 94 -6 c150 -10 259 -63 292 -144 20 -46 17 -156 -5 -238 -20 -75 -338 -945 -349 -957 -11 -11 -415 1287 -408 1310 9 29 33 33 209 39 l157 6 0 58 c0 53 -2 59 -22 63 -23 4 -2355 87 -2435 86 l-43 0 0 -65z m818 -61 c31 -5 32 -6 17 -27 -34 -49 -25 -77 280 -867 162 -420 295 -770 295 -779 -1 -9 -24 -101 -53 -206 -50 -181 -54 -190 -77 -190 -24 0 -44 49 -417 1004 -216 552 -404 1021 -418 1042 l-25 39 182 -6 c101 -3 198 -7 216 -10z m1238 -47 c2 -2 -3 -18 -12 -36 -11 -23 -15 -46 -11 -74 5 -30 431 -1407 471 -1522 2 -6 -29 -101 -69 -210 -59 -165 -76 -201 -93 -203 -24 -4 4 -88 -277 818 -331 1065 -356 1141 -382 1194 l-25 49 197 -6 c109 -4 199 -8 201 -10z m-546 -21 c31 -8 62 -24 72 -36 20 -24 111 -300 110 -334 0 -20 -244 -922 -260 -960 -6 -13 -77 159 -260 635 -139 360 -252 662 -252 671 0 41 53 48 310 43 153 -3 242 -9 280 -19z m1634 -16 l41 0 -44 -42 c-48 -47 -95 -112 -112 -155 l-11 -28 -12 50 c-16 66 -30 91 -80 144 l-41 44 109 -7 c60 -3 127 -6 150 -6z" style="fill-rule: evenodd; fill: rgb(45, 133, 85);"/>
    <path d="M9335 10730 l-1950 -6 -40 -21 c-48 -25 -66 -44 -95 -102 -18 -37 -21 -57 -18 -127 3 -72 7 -87 33 -125 37 -52 71 -78 116 -88 19 -4 953 0 2077 10 2040 17 2043 18 2086 39 44 21 85 70 105 123 18 47 13 136 -10 184 -44 91 -120 125 -272 121 -45 -1 -959 -5 -2032 -8z" style="fill-rule: evenodd; fill: rgb(45, 133, 85);"/>
    <path d="M7878 9950 l-546 -5 -43 -30 c-63 -45 -94 -112 -92 -201 2 -112 61 -200 150 -223 25 -7 720 -4 2079 8 l2041 18 46 22 c51 25 102 92 113 148 18 98 -26 208 -101 250 l-40 23 -1530 -2 c-841 -2 -1776 -5 -2077 -8z" style="fill-rule: evenodd; fill: rgb(45, 133, 85);"/>
    <path d="M4868 8831 c-105 -41 -161 -112 -159 -204 0 -69 14 -103 59 -150 45 -47 96 -75 160 -86 27 -6 1351 -4 3202 4 3026 12 3157 13 3210 31 71 24 144 94 160 154 27 98 -41 207 -157 250 -54 20 -65 20 -3241 20 -3060 -1 -3189 -2 -3234 -19z" style="fill-rule: evenodd; fill: rgb(45, 133, 85);"/>
    <path d="M7440 5070 l-2615 -5 -45 -21 c-54 -25 -113 -88 -130 -138 -26 -79 14 -189 87 -239 95 -65 8 -61 1183 -58 586 1 2017 6 3180 11 2368 10 2181 3 2267 83 24 22 51 53 59 68 16 32 18 106 4 143 -18 48 -89 114 -148 138 -68 27 122 26 -3842 18z" style="fill-rule: evenodd; fill: rgb(45, 133, 85);"/>
    <path d="M4752 4234 c-90 -45 -138 -139 -121 -242 14 -90 56 -144 142 -182 l47 -21 2468 11 c1357 5 2481 13 2497 16 84 17 158 92 174 177 18 100 -29 190 -129 243 -34 18 -118 19 -2530 22 l-2496 2 -52 -26z" style="fill-rule: evenodd; fill: rgb(45, 133, 85);"/>
    <path d="M4913 3180 c-94 -19 -181 -93 -200 -168 -11 -47 0 -123 24 -165 27 -46 96 -94 161 -113 52 -16 291 -16 3207 -5 1895 8 3167 16 3193 22 131 28 228 142 207 242 -15 69 -71 133 -150 169 l-50 23 -3175 1 c-1746 1 -3194 -2 -3217 -6z" style="fill-rule: evenodd; fill: rgb(45, 133, 85);"/>
    <path d="M4880 2281 c-165 -34 -237 -224 -140 -366 24 -35 47 -54 88 -73 l56 -25 2400 12 c1321 6 2428 14 2461 17 105 9 172 56 211 149 31 75 10 159 -57 227 -28 28 -62 51 -85 57 -44 12 -4874 14 -4934 2z" style="fill-rule: evenodd; fill: rgb(45, 133, 85);"/>
  </g>
</svg>