<svg version="1.0" xmlns="http://www.w3.org/2000/svg"
 width="401.000000pt" height="401.000000pt" viewBox="0 0 401.000000 401.000000"
 preserveAspectRatio="xMidYMid meet">
  <g transform="translate(0.000000,401.000000) scale(0.100000,-0.100000)"
  fill="#000000" stroke="none">
    <path d="M645 4000 c-193 -7 -206 -10 -330 -73 -127 -64 -230 -196 -280 -357
    -26 -84 -31 -467 -24 -1855 5 -1129 6 -1224 23 -1279 57 -192 192 -328 377
    -380 122 -34 451 -41 1799 -38 1425 3 1339 -1 1463 64 31 17 96 67 143 111
    117 109 156 188 175 351 14 125 13 2645 -2 2856 -12 179 -19 210 -64 300 -37
    73 -144 184 -210 217 -65 33 -174 64 -265 75 -96 12 -2507 19 -2805 8z m1560
    -1004 c103 -9 182 -24 255 -49 36 -11 68 -20 73 -19 4 1 7 -3 7 -9 0 -5 5 -7
    10 -4 6 3 10 1 10 -6 0 -7 3 -10 6 -6 3 3 17 -4 31 -16 13 -12 28 -22 33 -22
    5 0 30 -25 57 -56 75 -88 82 -97 76 -103 -4 -3 -2 -6 4 -6 5 0 10 -6 10 -12 1
    -7 8 -40 17 -73 20 -75 20 -175 1 -245 -9 -30 -16 -61 -17 -67 -1 -7 -5 -13
    -10 -13 -5 0 -6 -4 -3 -10 3 -5 1 -10 -6 -10 -7 0 -10 -3 -6 -6 10 -10 -130
    -161 -145 -157 -4 2 -8 -2 -8 -7 0 -6 -7 -10 -15 -10 -8 0 -15 -4 -15 -10 0
    -5 -3 -9 -7 -7 -11 3 -14 -14 -7 -35 4 -14 101 -69 127 -72 4 -1 12 -8 17 -16
    5 -8 10 -11 10 -6 0 5 21 -14 48 -41 69 -73 91 -101 85 -107 -4 -3 -1 -6 6 -6
    7 0 9 -4 6 -10 -3 -5 -1 -10 5 -10 6 0 9 -3 7 -7 -3 -5 0 -19 5 -33 31 -76 31
    -258 0 -345 -12 -33 -23 -64 -25 -69 -9 -37 -187 -212 -201 -199 -3 4 -6 1 -6
    -6 0 -7 -4 -9 -10 -6 -5 3 -10 1 -10 -5 0 -6 -4 -8 -10 -5 -5 3 -10 1 -10 -5
    0 -6 -4 -8 -10 -5 -5 3 -10 1 -10 -4 0 -6 -3 -10 -7 -10 -5 1 -11 0 -15 -1 -5
    -1 -12 -4 -18 -5 -5 -1 -11 -3 -12 -5 -4 -2 -10 -4 -123 -29 -131 -29 -230
    -34 -734 -38 -368 -3 -464 -1 -502 11 -27 7 -49 10 -51 5 -2 -5 -3 441 -3 991
    0 550 2 995 3 990 3 -7 9 -7 18 1 8 6 14 9 14 6 0 -4 10 -2 23 3 24 10 918 7
    1032 -4z"/>
    <path d="M1667 2543 c-14 -17 -17 -41 -17 -166 0 -140 1 -147 23 -162 18 -13
    55 -15 226 -15 238 2 290 13 339 77 23 31 27 46 27 104 0 82 -18 112 -91 149
    -47 24 -57 25 -269 28 -207 4 -221 3 -238 -15z"/>
    <path d="M1668 1800 c-16 -17 -18 -42 -18 -173 0 -138 2 -156 19 -171 16 -15
    45 -17 247 -16 245 2 305 9 355 43 59 40 73 69 73 150 0 90 -16 116 -92 154
    l-57 28 -255 2 c-244 3 -256 2 -272 -17z"/>
  </g>
</svg>
