<svg version="1.0" xmlns="http://www.w3.org/2000/svg"
 width="2366.000000pt" height="1770.000000pt" viewBox="0 0 2366.000000 1770.000000"
 preserveAspectRatio="xMidYMid meet">
  <g transform="translate(0.000000,1770.000000) scale(0.100000,-0.100000)"
  fill="#000000" stroke="none">
    <path d="M9475 17690 c5214 -3 9465 -8 9446 -12 -18 -5 -52 -8 -74 -8 -22 0
    -68 -4 -101 -9 -34 -6 -97 -15 -141 -21 -76 -10 -135 -20 -235 -40 -25 -4 -74
    -14 -110 -20 -36 -6 -81 -15 -100 -20 -19 -4 -60 -13 -90 -20 -109 -23 -541
    -127 -580 -140 -14 -4 -63 -18 -110 -30 -47 -12 -114 -31 -150 -41 -36 -11
    -83 -24 -105 -30 -22 -6 -51 -15 -65 -19 -14 -4 -56 -17 -95 -29 -83 -25 -231
    -70 -370 -113 -55 -17 -109 -34 -120 -39 -11 -4 -38 -13 -60 -20 -22 -6 -49
    -15 -60 -19 -11 -4 -54 -18 -95 -31 -41 -12 -79 -26 -85 -31 -5 -4 -17 -8 -27
    -8 -10 0 -26 -4 -36 -10 -9 -5 -64 -25 -122 -44 -142 -47 -311 -105 -335 -116
    -11 -5 -65 -25 -120 -44 -98 -33 -170 -59 -210 -76 -11 -5 -54 -21 -95 -35
    -139 -50 -185 -67 -215 -80 -16 -7 -66 -26 -110 -43 -118 -45 -707 -278 -805
    -319 -47 -19 -123 -51 -170 -70 -47 -20 -103 -43 -125 -53 -22 -10 -96 -41
    -165 -70 -185 -77 -257 -108 -338 -146 -41 -19 -76 -34 -78 -34 -2 0 -43 -18
    -90 -40 -47 -22 -91 -40 -98 -40 -7 0 -16 -4 -21 -9 -6 -5 -50 -27 -100 -49
    -101 -44 -146 -65 -355 -162 -287 -133 -421 -198 -810 -392 -369 -184 -514
    -259 -700 -360 -41 -23 -100 -55 -130 -71 -101 -55 -474 -269 -525 -300 -27
    -18 -61 -39 -75 -47 -182 -104 -781 -513 -820 -559 -3 -4 -30 -26 -60 -51 -84
    -68 -271 -257 -323 -329 -72 -97 -99 -163 -99 -242 0 -104 42 -162 154 -216
    85 -41 129 -53 293 -83 150 -28 675 -23 1135 10 256 18 419 30 555 40 373 28
    709 23 810 -12 65 -22 113 -51 124 -74 18 -40 13 -128 -11 -191 -42 -115 -126
    -224 -300 -393 -65 -64 -118 -119 -118 -123 0 -4 16 -7 35 -7 34 0 111 -16
    150 -30 11 -5 36 -14 55 -21 58 -21 116 -71 152 -129 31 -51 33 -60 33 -141
    -1 -48 -6 -98 -12 -111 -54 -118 -81 -169 -107 -204 -64 -84 -153 -182 -220
    -239 -37 -33 -73 -65 -80 -71 -75 -69 -267 -198 -441 -297 -197 -111 -560
    -262 -717 -298 -21 -5 -55 -13 -75 -18 -44 -11 -153 -34 -239 -50 -78 -14
    -360 -14 -421 0 -96 23 -175 63 -223 111 -20 21 -40 38 -44 38 -7 0 -218 -139
    -226 -150 -3 -3 -21 -17 -40 -30 -138 -95 -385 -321 -459 -420 -14 -19 -28
    -37 -32 -40 -3 -3 -23 -32 -45 -65 -180 -270 -125 -445 166 -534 183 -56 502
    -77 785 -51 61 6 160 15 220 20 156 15 306 34 495 66 52 8 120 19 150 24 30 5
    82 14 115 21 33 6 80 15 105 19 58 10 144 28 195 39 22 5 56 12 75 16 19 3 51
    10 70 15 36 9 89 21 175 40 28 6 95 22 150 36 101 26 137 35 210 53 43 10 179
    46 233 62 89 25 110 31 142 39 19 4 58 15 85 23 28 9 84 26 125 37 41 12 83
    26 92 31 23 12 94 12 132 -1 17 -5 65 -19 106 -31 41 -12 102 -29 135 -39 33
    -10 78 -23 100 -29 22 -6 72 -20 110 -31 39 -12 88 -26 110 -32 22 -5 49 -14
    60 -18 11 -4 38 -13 60 -19 22 -6 72 -20 110 -31 39 -12 88 -26 110 -32 22 -6
    51 -14 65 -18 50 -15 166 -49 205 -59 48 -13 157 -45 240 -70 33 -10 78 -23
    100 -29 22 -6 85 -25 140 -41 55 -16 134 -39 175 -51 172 -48 303 -86 415
    -121 97 -31 187 -30 242 1 60 33 91 84 123 200 7 25 16 56 20 70 4 14 18 59
    29 100 12 41 30 104 41 140 21 68 65 220 81 280 6 19 14 50 20 68 5 17 13 47
    18 65 5 17 21 73 35 122 15 50 31 108 38 130 6 22 19 67 29 100 10 33 27 92
    38 130 34 119 63 219 71 245 4 14 13 45 20 70 7 25 16 56 20 70 4 14 13 45 20
    70 7 25 16 56 20 70 43 142 55 177 64 189 6 7 71 56 146 107 192 134 219 153
    276 198 28 23 66 52 84 66 19 14 52 41 74 60 23 19 48 42 58 50 137 119 262
    245 363 365 34 40 125 171 125 180 0 4 8 19 18 33 27 39 59 127 74 199 10 51
    9 75 -1 125 -25 121 -90 191 -211 227 -25 7 -58 17 -74 22 -38 12 -283 11
    -360 0 -34 -6 -97 -15 -141 -21 -89 -13 -140 -23 -310 -60 -57 -13 -293 -69
    -335 -80 -37 -10 -265 -64 -340 -81 -103 -24 -143 -32 -277 -58 -27 -5 -99
    -15 -160 -22 -188 -20 -306 14 -352 99 -18 34 -13 67 20 129 32 59 176 211
    274 288 28 22 52 42 55 45 3 3 50 39 105 79 55 41 116 86 135 101 41 31 590
    395 741 491 162 102 286 181 379 239 47 29 115 73 152 97 37 23 70 43 73 43 3
    0 36 20 73 43 37 24 104 67 150 95 45 29 117 74 160 101 42 27 133 84 202 126
    161 101 271 169 342 214 305 190 786 506 1064 698 78 54 177 122 220 152 44
    30 81 57 84 60 3 4 46 35 95 71 78 56 250 186 295 223 8 7 35 28 60 47 25 19
    47 37 50 40 3 3 30 25 60 50 145 119 194 164 366 335 82 82 170 175 194 205
    25 30 47 57 50 60 42 41 158 248 179 320 7 25 17 58 22 74 14 44 10 126 -7
    176 -51 146 -147 205 -419 257 -22 5 923 10 2100 13 1177 3 -3186 5 -9695 5
    l-11835 0 9480 -5z m8675 -455 c26 -32 -13 -81 -47 -59 -35 22 -23 74 17 74
    10 0 23 -7 30 -15z m-738 -437 c77 -44 91 -129 33 -194 -69 -76 -205 -19 -205
    85 0 86 101 149 172 109z m-342 -643 c26 -32 -13 -81 -47 -59 -35 22 -23 74
    17 74 10 0 23 -7 30 -15z m-2640 -320 c26 -32 -13 -81 -47 -59 -35 22 -23 74
    17 74 10 0 23 -7 30 -15z m-1522 -270 c33 -71 6 -172 -63 -240 -102 -103 -244
    -100 -340 6 -41 45 -44 66 -12 78 22 9 210 97 322 151 75 36 79 36 93 5z
    m2977 -63 c106 -73 97 -220 -19 -277 -77 -39 -177 1 -212 84 -60 144 103 281
    231 193z m-2351 -318 c15 -16 26 -38 26 -54 0 -16 -11 -38 -26 -54 -16 -15
    -38 -26 -54 -26 -16 0 -38 11 -54 26 -15 16 -26 38 -26 54 0 16 11 38 26 54
    16 15 38 26 54 26 16 0 38 -11 54 -26z m-864 -189 c26 -32 -13 -81 -47 -59
    -35 22 -23 74 17 74 10 0 23 -7 30 -15z m1504 -11 c15 -16 26 -38 26 -54 0
    -16 -11 -38 -26 -54 -16 -15 -38 -26 -54 -26 -16 0 -38 11 -54 26 -15 16 -26
    38 -26 54 0 16 11 38 26 54 16 15 38 26 54 26 16 0 38 -11 54 -26z m-2304
    -189 c26 -32 -13 -81 -47 -59 -35 22 -23 74 17 74 10 0 23 -7 30 -15z m3800
    -40 c26 -32 -13 -81 -47 -59 -35 22 -23 74 17 74 10 0 23 -7 30 -15z m-3480
    -200 c26 -32 -13 -81 -47 -59 -35 22 -23 74 17 74 10 0 23 -7 30 -15z m-218
    -317 c77 -44 91 -129 33 -194 -51 -56 -155 -39 -193 33 -22 41 -12 99 23 138
    31 35 97 45 137 23z m2778 -3 c26 -32 -13 -81 -47 -59 -35 22 -23 74 17 74 10
    0 23 -7 30 -15z m-2240 -320 c26 -32 -13 -81 -47 -59 -35 22 -23 74 17 74 10
    0 23 -7 30 -15z m-2176 -331 c15 -16 26 -38 26 -54 0 -16 -11 -38 -26 -54 -16
    -15 -38 -26 -54 -26 -16 0 -38 11 -54 26 -15 16 -26 38 -26 54 0 16 11 38 26
    54 16 15 38 26 54 26 16 0 38 -11 54 -26z m376 -269 c26 -32 -13 -81 -47 -59
    -35 22 -23 74 17 74 10 0 23 -7 30 -15z m2487 -721 c32 -9 72 -20 88 -24 138
    -40 183 -53 275 -80 58 -17 130 -38 160 -46 30 -8 66 -18 80 -23 14 -5 45 -14
    70 -21 25 -7 56 -16 70 -20 14 -4 45 -13 70 -20 25 -7 56 -16 70 -20 14 -4 45
    -13 70 -20 25 -7 70 -21 101 -31 30 -11 65 -19 77 -19 11 0 24 -4 27 -10 3 -5
    14 -10 24 -10 10 0 47 -9 82 -20 35 -11 80 -25 99 -30 19 -5 58 -16 85 -24 28
    -8 77 -22 110 -31 33 -10 71 -21 85 -25 14 -4 45 -13 70 -20 25 -7 70 -21 101
    -31 30 -11 63 -19 72 -19 10 0 25 -4 35 -9 9 -5 35 -14 57 -20 22 -5 72 -19
    110 -31 39 -11 88 -25 110 -31 22 -6 50 -15 63 -20 13 -5 30 -9 39 -9 31 0 82
    -49 89 -86 7 -41 -21 -175 -58 -274 -4 -8 -11 -37 -18 -65 -7 -27 -20 -75 -30
    -105 -10 -30 -27 -91 -39 -135 -13 -44 -26 -91 -31 -105 -7 -23 -15 -51 -70
    -243 -11 -39 -29 -101 -40 -137 -27 -90 -50 -169 -60 -205 -4 -16 -20 -70 -34
    -120 -14 -49 -31 -108 -37 -130 -6 -22 -15 -51 -19 -65 -4 -14 -17 -59 -29
    -100 -12 -41 -30 -102 -40 -135 -10 -33 -24 -80 -31 -105 -7 -25 -14 -51 -16
    -57 -7 -26 -24 -12 -59 48 -19 33 -35 62 -35 64 0 2 -33 61 -73 132 -41 70
    -102 179 -136 240 -65 116 -97 153 -136 153 -25 0 -93 -34 -353 -177 -35 -19
    -69 -32 -76 -30 -13 5 -36 41 -104 167 -19 36 -61 110 -92 165 -31 55 -69 123
    -85 150 -138 252 -163 285 -212 285 -21 0 -170 -72 -208 -100 -5 -4 -50 -29
    -100 -55 -120 -63 -202 -108 -305 -165 -47 -26 -146 -80 -220 -120 -74 -40
    -190 -104 -257 -141 -168 -93 -181 -95 -154 -27 5 13 14 41 20 63 5 22 19 72
    31 110 11 39 25 86 30 105 5 19 19 67 30 105 12 39 26 88 32 110 6 22 19 67
    30 100 19 60 26 86 46 160 6 22 20 72 32 110 11 39 25 86 30 105 5 19 19 67
    30 105 12 39 26 88 32 110 18 66 27 97 44 150 9 28 24 80 35 118 18 65 51 180
    69 242 5 17 13 46 19 65 5 19 21 76 35 125 15 50 31 108 37 130 22 79 38 102
    81 124 24 12 44 21 45 21 1 0 28 -7 60 -16z m506 -1696 c15 -29 38 -71 50 -93
    13 -22 37 -65 54 -95 17 -30 59 -107 95 -170 36 -63 76 -135 90 -160 14 -25
    37 -66 52 -93 15 -26 24 -51 21 -56 -2 -5 -24 -19 -47 -31 -24 -12 -67 -35
    -95 -51 -29 -16 -79 -43 -110 -60 -32 -18 -76 -42 -98 -54 -22 -12 -67 -37
    -100 -55 -33 -18 -96 -52 -140 -76 -44 -24 -108 -58 -143 -75 l-62 -31 -53 16
    c-28 9 -68 21 -87 26 -19 5 -75 22 -125 36 -127 37 -220 63 -295 84 -36 10
    -85 25 -110 33 -25 8 -65 20 -90 27 -142 40 -167 67 -155 168 7 60 6 59 175
    149 52 28 129 70 170 93 41 23 116 64 165 90 50 27 245 134 435 238 190 105
    352 190 360 191 9 1 27 -21 43 -51z m920 -560 c15 -29 38 -71 51 -93 35 -61
    220 -392 256 -460 18 -33 37 -66 43 -72 10 -13 6 -41 -12 -103 -5 -19 -18 -66
    -29 -104 -39 -142 -85 -164 -247 -116 -16 5 -46 13 -65 19 -50 13 -160 45
    -265 75 -49 14 -108 31 -130 38 -22 6 -67 19 -100 29 -33 10 -94 28 -135 40
    -41 12 -104 30 -140 40 -36 11 -83 24 -105 30 -22 6 -51 15 -65 19 -14 4 -45
    13 -70 20 -25 7 -56 16 -70 20 -14 4 -44 13 -67 20 -24 7 -43 16 -43 20 0 3
    24 19 53 34 28 16 72 40 97 53 77 43 801 438 885 483 44 23 84 47 90 51 21 20
    42 7 68 -43z"/>
    <path d="M14680 11730 c-105 -15 -211 -95 -260 -197 -20 -40 -24 -64 -24 -148
    0 -119 16 -160 99 -242 83 -84 188 -118 300 -98 83 15 132 41 190 100 59 58
    83 103 95 180 40 243 -155 440 -400 405z m174 -122 c86 -44 130 -119 129 -220
    -2 -155 -118 -260 -273 -245 -67 6 -109 27 -149 73 -54 61 -66 92 -65 174 0
    83 20 129 77 183 72 67 189 82 281 35z"/>
    <path d="M10600 12418 c-410 -86 -701 -370 -786 -768 -17 -78 -18 -291 -3
    -357 30 -131 57 -210 93 -277 l21 -38 -30 -24 c-16 -12 -86 -59 -155 -104 -69
    -45 -129 -85 -134 -91 -13 -12 36 -63 81 -84 72 -34 142 -45 295 -45 84 0 179
    5 212 11 120 22 350 79 401 100 11 4 40 15 65 23 59 19 125 44 177 67 24 10
    45 19 49 19 12 0 282 139 348 178 37 23 70 42 71 42 15 0 232 156 320 229 39
    33 196 190 215 216 8 11 29 38 46 60 17 22 46 72 64 110 29 59 34 81 34 142 0
    65 -2 75 -30 110 -34 41 -111 84 -187 102 -26 6 -92 11 -147 11 -73 0 -100 3
    -100 13 -1 21 -105 124 -185 182 -120 85 -243 140 -387 170 -81 17 -275 18
    -348 3z m190 -82 c152 -34 223 -70 316 -161 75 -74 95 -104 134 -200 34 -84
    35 -239 1 -335 -48 -139 -99 -220 -200 -320 -140 -139 -269 -194 -456 -194
    -310 -2 -547 166 -611 431 -44 185 24 399 176 553 41 42 93 90 115 106 146
    108 359 156 525 120z"/>
    <path d="M10555 12270 c-189 -22 -364 -153 -444 -332 -51 -115 -65 -222 -31
    -238 8 -4 35 -17 60 -28 25 -11 70 -31 100 -45 30 -14 78 -35 105 -47 28 -12
    73 -32 100 -45 28 -12 77 -35 110 -50 33 -15 110 -51 172 -81 61 -30 114 -54
    118 -54 11 0 88 63 128 105 37 39 89 114 114 165 36 72 52 201 36 294 l-6 39
    -76 -7 c-71 -6 -126 -14 -226 -34 -37 -7 -40 -10 -37 -37 6 -52 20 -68 55 -62
    158 26 189 29 197 21 19 -21 -31 -195 -67 -232 -7 -7 -13 -17 -13 -21 0 -13
    -100 -111 -113 -111 -7 0 -39 16 -72 35 -59 34 -130 69 -212 106 -24 10 -64
    29 -90 40 -27 12 -57 25 -68 29 -11 4 -42 18 -70 30 -27 12 -59 26 -70 30 -98
    38 -115 50 -115 80 0 42 28 111 74 180 55 83 143 154 221 181 22 7 46 18 54
    23 7 6 61 10 120 9 88 -1 118 -6 175 -27 38 -14 70 -26 71 -26 1 0 12 9 25 20
    29 25 17 42 -42 60 -24 7 -54 16 -68 20 -38 13 -148 17 -215 10z"/>
    <path d="M10090 11560 c0 -27 68 -125 114 -164 104 -89 204 -126 338 -126 86
    0 178 15 178 29 0 8 -164 87 -250 121 -30 12 -68 27 -85 35 -16 7 -46 18 -65
    26 -19 7 -57 23 -85 35 -127 56 -145 62 -145 44z"/>
    <path d="M6260 9510 c-36 -4 -87 -13 -115 -19 -27 -5 -63 -13 -80 -16 -16 -4
    -39 -10 -50 -14 -11 -5 -38 -14 -60 -21 -75 -23 -202 -87 -291 -146 -79 -53
    -274 -233 -274 -253 0 -4 -11 -21 -25 -37 -14 -16 -48 -76 -77 -134 -56 -116
    -61 -127 -76 -185 -45 -170 -55 -256 -48 -405 7 -158 14 -211 57 -425 18 -87
    22 -232 9 -283 -11 -44 -18 -62 -44 -122 -30 -71 -123 -179 -208 -242 -20 -15
    -42 -33 -50 -40 -7 -7 -38 -33 -68 -58 -103 -85 -156 -145 -197 -225 -46 -90
    -48 -98 -48 -196 l0 -97 -45 -21 c-25 -11 -79 -34 -120 -52 -147 -63 -507
    -251 -564 -294 -60 -44 -146 -148 -146 -175 0 -9 -4 -20 -8 -25 -21 -25 -36
    -114 -63 -376 -13 -124 -7 -517 10 -734 61 -760 94 -1051 162 -1455 5 -30 13
    -82 18 -115 6 -33 12 -69 15 -80 2 -11 9 -45 15 -75 37 -188 55 -274 66 -314
    l8 -29 -49 7 c-282 38 -461 -5 -611 -147 -67 -63 -109 -129 -139 -218 -20 -60
    -24 -90 -24 -194 0 -110 3 -132 31 -216 53 -163 154 -329 294 -488 106 -119
    363 -365 428 -410 12 -8 24 -17 27 -21 3 -3 25 -21 50 -40 25 -19 47 -37 50
    -40 3 -3 21 -17 40 -30 19 -13 37 -27 40 -30 3 -3 21 -17 40 -30 19 -14 40
    -28 45 -33 6 -4 35 -25 65 -47 30 -22 60 -43 65 -48 6 -4 39 -28 75 -52 36
    -24 74 -53 85 -63 23 -22 29 -22 -205 3 -140 14 -306 2 -395 -29 -191 -68
    -300 -248 -267 -441 7 -39 16 -78 20 -88 5 -9 19 -39 32 -65 13 -26 41 -66 63
    -89 l40 -41 396 7 c218 4 400 11 405 16 6 6 -7 25 -31 49 -23 21 -54 61 -70
    88 -24 42 -28 58 -28 128 0 113 41 178 138 223 87 39 171 46 339 28 84 -9 178
    -21 208 -27 30 -6 75 -15 100 -20 65 -13 157 -30 213 -38 27 -4 53 -14 58 -22
    5 -8 9 -99 9 -202 0 -207 3 -217 59 -217 51 0 55 20 61 269 l5 224 60 22 c33
    12 78 27 100 35 22 7 49 16 60 21 11 4 90 31 175 59 85 28 162 54 170 57 27
    11 414 144 465 160 28 8 59 19 70 23 11 5 63 23 115 40 52 18 104 36 115 40
    11 5 38 14 60 21 22 6 57 18 77 25 21 8 86 30 145 50 60 19 117 39 128 44 23
    9 79 24 148 39 76 17 140 33 172 41 58 16 112 30 278 70 92 22 242 58 335 81
    92 22 223 54 292 70 69 16 142 34 163 39 309 80 360 90 435 90 106 0 237 -23
    369 -64 58 -18 170 -73 191 -93 7 -7 17 -13 21 -13 14 0 153 -144 191 -197 46
    -63 72 -114 101 -193 19 -54 23 -85 23 -190 1 -79 -4 -142 -13 -170 -20 -68
    -53 -151 -72 -185 -32 -58 -63 -110 -69 -115 -3 -3 -21 -25 -40 -50 -19 -25
    -50 -62 -70 -83 -46 -50 -50 -59 -43 -85 8 -34 55 -29 95 11 67 65 168 195
    168 216 0 5 3 11 8 13 13 6 83 157 101 218 27 94 31 125 31 220 0 96 -4 124
    -33 225 -18 62 -70 164 -114 222 -69 92 -183 204 -244 240 -16 10 -29 20 -29
    23 0 4 15 14 34 22 23 11 41 32 58 65 22 45 25 48 58 45 19 -2 43 -8 52 -13
    26 -14 117 -10 173 6 262 80 351 404 164 600 -44 45 -47 60 -19 95 11 14 20
    29 20 33 0 5 14 28 30 52 17 24 30 48 30 53 0 6 3 12 8 14 9 4 41 57 49 81 3
    9 9 17 14 17 5 0 9 4 9 9 0 5 18 39 41 76 22 37 49 82 58 99 10 17 85 144 168
    281 189 315 176 290 163 316 -10 18 -19 20 -58 16 -26 -2 -81 -14 -122 -25
    -41 -11 -127 -34 -190 -51 -192 -50 -485 -127 -540 -142 -19 -6 -53 -14 -75
    -19 -44 -11 -100 -25 -155 -41 -19 -6 -51 -14 -70 -19 -19 -5 -53 -14 -75 -20
    -22 -6 -56 -15 -75 -19 -19 -5 -87 -22 -152 -40 -137 -37 -152 -38 -171 -11
    -8 12 -39 47 -68 79 -30 31 -79 86 -109 122 -30 35 -64 74 -76 85 -11 12 -38
    43 -60 70 -21 27 -47 58 -58 69 -10 11 -55 65 -99 120 -45 55 -84 102 -87 105
    -3 3 -17 21 -31 40 -15 19 -37 46 -49 60 -43 49 -107 145 -113 170 -6 26 -41
    160 -58 218 -13 46 -25 89 -43 155 -9 31 -23 83 -32 115 -35 127 -45 161 -64
    227 -5 17 -12 41 -15 55 -4 14 -15 52 -25 85 -10 33 -23 80 -30 105 -7 25 -20
    70 -30 100 -9 30 -27 89 -39 130 -57 191 -84 276 -92 292 -5 10 -9 25 -9 33 0
    9 -18 69 -39 133 -22 64 -49 149 -60 187 -12 39 -26 79 -30 90 -5 11 -15 40
    -22 65 -25 86 -95 245 -143 326 -57 96 -165 212 -256 274 -36 25 -67 48 -70
    51 -9 9 -177 89 -189 89 -6 0 -19 4 -29 9 -23 12 -57 25 -124 50 -126 46 -166
    60 -238 82 -41 13 -81 27 -87 32 -19 14 -16 27 6 27 45 0 147 66 231 150 78
    77 170 195 170 219 0 5 4 11 8 13 12 5 85 154 120 243 46 119 85 302 102 480
    13 140 13 428 0 514 -6 36 -15 98 -21 136 -5 39 -15 91 -21 117 -11 46 -11 47
    26 89 125 138 106 297 -53 456 -64 64 -85 81 -156 123 -69 42 -133 72 -190 90
    -22 7 -49 16 -60 21 -11 4 -42 12 -70 18 -27 6 -72 15 -100 22 -64 14 -360 20
    -445 9z m298 -869 c144 -46 177 -51 310 -51 117 1 134 3 222 34 52 18 102 36
    111 40 16 7 20 -6 51 -169 17 -95 17 -552 -1 -660 -12 -76 -32 -177 -51 -255
    -8 -35 -32 -106 -49 -145 -41 -94 -123 -249 -141 -265 -3 -3 -17 -21 -30 -40
    -13 -19 -55 -67 -94 -107 -155 -158 -339 -192 -591 -109 -27 10 -59 22 -71 27
    -28 14 -64 8 -78 -13 -7 -12 -7 -35 3 -80 29 -143 115 -309 209 -406 23 -23
    42 -51 42 -62 0 -19 -17 -58 -31 -70 -3 -3 -19 -25 -36 -50 -89 -131 -250
    -228 -430 -260 -100 -18 -117 -13 -124 35 -7 44 -22 111 -38 165 -59 212 -63
    236 -63 355 -1 135 4 151 74 255 51 76 91 133 98 140 5 5 46 68 73 112 53 87
    88 170 107 256 10 41 9 67 -1 120 -21 112 -68 182 -218 321 -181 169 -246 275
    -220 362 23 76 94 129 174 129 54 0 66 -8 132 -83 68 -78 157 -99 234 -55 82
    46 116 153 89 283 -7 33 -15 86 -17 118 -4 51 -2 62 21 92 62 81 159 92 334
    36z m77 -1931 c39 -10 125 -40 147 -51 10 -5 24 -9 32 -9 7 0 35 -9 62 -19 27
    -11 101 -38 164 -61 181 -65 235 -91 325 -151 68 -46 155 -124 205 -184 47
    -56 116 -182 150 -271 34 -91 151 -452 221 -679 11 -38 28 -90 36 -115 8 -25
    23 -74 33 -110 10 -36 28 -96 40 -135 22 -72 31 -101 50 -170 6 -22 15 -53 20
    -70 10 -36 48 -166 61 -212 5 -18 14 -49 19 -68 15 -54 26 -93 49 -175 11 -41
    30 -109 41 -150 44 -156 62 -226 67 -251 4 -21 179 -251 300 -393 15 -18 37
    -44 47 -57 23 -29 119 -142 126 -149 3 -3 18 -21 34 -40 16 -19 56 -66 90
    -104 33 -38 66 -74 71 -81 6 -6 26 -28 44 -48 28 -29 32 -40 23 -49 -7 -7 -63
    -25 -125 -41 -61 -16 -128 -33 -147 -38 -35 -10 -77 -21 -147 -38 -21 -5 -64
    -16 -97 -25 -63 -18 -82 -16 -114 12 -11 9 -88 69 -172 132 -84 63 -158 120
    -164 125 -6 6 -27 22 -46 35 -19 13 -37 27 -40 30 -3 3 -21 17 -40 30 -19 13
    -37 27 -40 30 -3 4 -39 32 -81 63 -42 31 -83 62 -90 69 -8 7 -31 24 -51 38
    -51 34 -51 33 -87 225 -5 28 -19 97 -30 155 -12 58 -35 175 -51 260 -16 85
    -34 178 -40 205 -5 28 -14 73 -19 100 -16 84 -32 168 -41 210 -5 22 -14 72
    -21 110 -21 129 -47 174 -86 149 -17 -10 -18 -57 -21 -715 -3 -793 -12 -685
    77 -959 21 -63 44 -135 51 -160 7 -25 30 -97 50 -160 20 -63 43 -135 50 -160
    7 -25 16 -54 21 -65 4 -11 21 -62 36 -113 28 -96 46 -119 83 -107 29 9 32 36
    10 106 -11 35 -25 82 -31 104 -6 22 -15 49 -20 60 -4 11 -18 54 -29 95 -12 41
    -29 100 -39 130 -10 30 -33 102 -51 160 -18 58 -36 114 -40 125 -4 11 -13 40
    -20 65 -7 25 -16 54 -21 65 -36 87 -39 123 -38 539 0 463 2 468 59 156 11 -61
    30 -157 40 -205 5 -22 14 -69 20 -105 15 -86 30 -157 41 -201 5 -20 9 -46 9
    -57 0 -13 15 -32 38 -49 20 -15 39 -30 42 -33 3 -3 21 -17 40 -30 19 -13 37
    -27 40 -30 3 -3 21 -17 40 -30 19 -13 37 -27 40 -30 3 -3 43 -34 90 -69 113
    -85 162 -123 178 -138 7 -7 17 -13 20 -13 4 0 18 -10 32 -23 14 -12 41 -33 60
    -47 19 -13 37 -27 40 -30 3 -3 21 -17 40 -30 46 -32 80 -62 80 -70 0 -4 -23
    -13 -51 -20 -49 -14 -55 -19 -104 -95 -29 -44 -90 -139 -137 -210 -47 -72 -91
    -142 -98 -155 -7 -13 -17 -29 -22 -34 -4 -6 -40 -60 -78 -121 -38 -60 -78
    -122 -89 -137 -12 -14 -21 -29 -21 -32 0 -3 -33 -57 -73 -119 -177 -270 -207
    -317 -207 -322 0 -6 -139 -216 -157 -236 -11 -13 -22 -14 -51 -8 -54 12 -173
    41 -237 58 -22 6 -58 15 -80 20 -22 5 -94 24 -160 41 -124 33 -161 42 -230 59
    -84 20 -171 42 -200 50 -16 5 -91 24 -165 42 -74 18 -137 34 -139 36 -14 10
    39 34 159 72 74 24 144 47 155 51 11 4 63 21 115 38 322 101 547 175 561 182
    9 5 33 12 54 16 34 6 40 4 71 -32 19 -22 47 -55 62 -74 77 -102 150 -180 166
    -180 7 0 21 9 31 21 18 19 18 21 2 52 -10 18 -34 50 -54 72 -19 22 -47 56 -62
    75 -14 19 -33 43 -41 52 -8 9 -35 41 -60 72 -63 76 -41 68 -325 127 -55 12
    -116 25 -135 29 -19 4 -50 11 -67 15 -36 8 -41 26 -24 81 5 16 14 56 21 89 6
    33 16 71 21 83 10 26 15 26 149 1 114 -22 147 -28 210 -39 98 -17 134 -28 155
    -47 11 -10 49 -38 85 -63 36 -24 67 -48 68 -52 2 -4 8 -8 13 -8 7 0 53 -32
    119 -83 38 -29 137 -94 151 -100 20 -7 59 18 59 37 0 14 -69 86 -82 86 -4 0
    -16 6 -25 14 -37 30 -111 83 -188 136 -44 30 -82 57 -85 60 -3 3 -29 23 -59
    44 -55 39 -78 46 -256 77 -113 19 -170 30 -213 39 -23 6 -55 10 -70 10 -27 0
    -69 20 -437 210 -110 56 -283 145 -385 198 -102 52 -264 135 -360 185 -96 49
    -260 133 -365 187 -240 123 -308 159 -318 169 -5 5 -13 109 -18 232 -41 946
    -36 899 -88 899 -44 0 -44 32 -11 -700 21 -492 20 -479 49 -499 14 -10 121
    -67 236 -126 196 -101 282 -144 760 -390 102 -52 269 -139 373 -192 103 -53
    245 -126 316 -161 l128 -65 -6 -41 c-3 -23 -10 -61 -16 -86 -5 -25 -14 -67
    -19 -93 -11 -66 -18 -71 -82 -59 -60 12 -145 26 -259 42 -41 6 -97 15 -125 20
    -27 5 -88 14 -135 20 -47 6 -107 15 -135 20 -27 5 -80 14 -117 20 -145 22
    -205 31 -258 40 -30 5 -89 14 -130 20 -176 26 -213 35 -280 62 -32 14 -70 29
    -95 38 -11 5 -41 17 -67 29 -26 12 -50 21 -53 21 -3 0 -27 10 -53 21 -44 20
    -59 27 -144 63 -69 29 -115 49 -163 71 -104 47 -145 65 -150 65 -3 0 -27 9
    -53 21 -80 35 -85 37 -161 62 -41 14 -78 31 -83 40 -8 15 -14 41 -39 167 -6
    30 -15 73 -19 95 -4 22 -13 65 -19 95 -5 30 -19 105 -31 165 -11 61 -25 137
    -30 170 -5 33 -14 94 -20 135 -11 74 -20 145 -40 298 -14 110 -40 370 -69 712
    -6 63 -16 176 -23 250 -16 178 -16 728 1 840 33 223 52 279 118 347 66 68 143
    112 443 256 63 30 131 62 150 70 170 76 173 77 186 66 8 -7 14 -31 14 -55 0
    -40 -6 -49 -72 -122 -95 -103 -99 -107 -131 -174 -41 -85 -57 -158 -57 -268 0
    -184 55 -316 184 -446 103 -103 182 -144 334 -174 172 -33 393 22 570 142 45
    31 162 145 162 158 0 5 6 15 14 23 39 39 77 136 97 246 5 30 12 58 14 62 3 4
    36 10 73 14 139 13 243 50 356 126 57 39 141 118 176 165 42 57 59 85 86 144
    29 61 36 83 63 186 6 23 11 75 11 116 0 79 5 92 29 82 9 -3 30 -10 46 -14z
    m4085 -3492 c0 -7 -9 -24 -20 -38 -11 -14 -20 -31 -20 -37 0 -7 -4 -13 -9 -13
    -5 0 -11 -8 -14 -17 -4 -10 -17 -36 -30 -58 -113 -188 -152 -254 -167 -280
    -10 -16 -67 -111 -126 -210 -60 -99 -115 -192 -122 -205 -31 -59 -34 -61 -98
    -49 -66 13 -166 6 -210 -13 -31 -13 -112 -65 -129 -83 -27 -26 -72 -104 -86
    -145 -20 -63 -17 -184 6 -243 14 -39 16 -50 6 -57 -7 -4 -63 -19 -125 -34 -61
    -15 -127 -31 -146 -36 -19 -5 -129 -32 -245 -60 -115 -28 -226 -55 -245 -60
    -19 -5 -93 -23 -165 -40 -128 -30 -159 -38 -242 -59 -84 -21 -119 -30 -168
    -41 -27 -6 -68 -16 -90 -21 -22 -6 -57 -15 -77 -20 -21 -5 -55 -13 -75 -19
    -21 -5 -78 -18 -128 -30 -84 -20 -108 -25 -202 -50 -21 -5 -96 -23 -168 -40
    -71 -18 -138 -34 -147 -37 -31 -8 -20 23 42 119 33 51 64 98 69 104 4 5 14 21
    21 35 7 13 53 84 102 157 48 73 88 135 88 138 0 3 23 38 50 79 28 41 50 79 50
    85 0 5 4 10 8 10 5 0 14 11 20 25 7 14 16 31 22 38 16 19 130 197 130 203 0 3
    5 10 10 17 17 20 177 268 209 323 21 37 37 53 58 57 15 4 62 16 103 28 41 11
    91 25 110 29 40 9 195 50 285 75 33 9 76 21 95 25 19 5 71 18 115 30 44 12 96
    25 115 30 19 5 53 14 75 20 38 11 66 18 153 39 61 15 181 48 357 96 33 9 76
    21 95 25 19 5 53 14 75 20 22 6 57 16 78 21 20 5 55 14 77 19 22 6 57 14 78
    19 20 5 55 15 77 21 22 6 56 15 75 20 19 5 53 14 75 20 22 6 56 15 75 20 19 5
    53 14 75 20 22 6 57 15 78 19 21 5 41 11 44 15 11 11 53 6 53 -6z m-6795 -460
    c59 -14 115 -29 155 -41 36 -10 191 -68 245 -92 17 -7 46 -19 65 -28 19 -8 56
    -24 83 -36 26 -12 68 -30 95 -42 56 -25 109 -48 137 -59 11 -4 41 -17 67 -29
    26 -12 50 -21 53 -21 3 0 27 -10 53 -21 81 -37 105 -47 177 -74 39 -15 89 -36
    112 -46 24 -10 47 -19 53 -19 6 0 18 -4 28 -9 36 -19 112 -51 122 -51 6 0 18
    -4 28 -9 23 -11 59 -26 102 -41 19 -7 49 -18 65 -25 30 -13 73 -29 215 -80 90
    -32 178 -64 205 -75 11 -4 36 -13 55 -20 19 -7 44 -16 55 -20 11 -5 29 -11 40
    -13 25 -6 146 -49 308 -109 30 -11 36 -28 11 -28 -17 0 -199 -57 -226 -71 -10
    -5 -24 -9 -32 -9 -7 0 -35 -8 -62 -19 -27 -10 -94 -33 -149 -50 -134 -43 -145
    -49 -145 -81 0 -28 21 -43 75 -55 39 -8 82 -19 180 -45 44 -12 98 -26 120 -31
    22 -5 58 -14 80 -20 49 -13 97 -25 150 -38 22 -5 112 -28 200 -51 88 -23 178
    -46 200 -51 22 -4 76 -18 120 -30 44 -11 96 -24 115 -29 19 -4 42 -10 50 -13
    8 -3 27 -8 43 -11 56 -13 24 -32 -146 -88 -203 -67 -324 -108 -352 -118 -11
    -5 -36 -13 -55 -20 -19 -7 -44 -15 -55 -20 -40 -15 -121 -42 -170 -57 -27 -8
    -59 -19 -70 -24 -11 -4 -76 -27 -145 -49 -69 -23 -134 -45 -145 -50 -11 -5
    -38 -14 -60 -21 -22 -6 -58 -18 -79 -26 -22 -8 -87 -30 -145 -49 -59 -19 -113
    -38 -121 -43 -9 -5 -29 -11 -46 -15 -28 -6 -33 -3 -59 36 -40 62 -123 140
    -175 165 -75 35 -179 47 -273 33 -45 -7 -107 -19 -137 -27 -149 -40 -247 -62
    -269 -63 -13 0 -40 14 -60 30 -41 35 -36 31 -121 89 -36 25 -67 47 -70 50 -3
    4 -27 21 -55 40 -61 42 -155 112 -173 128 -7 7 -17 13 -20 13 -4 0 -18 10 -32
    23 -14 12 -41 33 -60 47 -31 22 -127 97 -140 110 -3 3 -30 25 -60 50 -84 68
    -329 316 -396 400 -155 194 -225 336 -254 516 -12 72 -11 92 3 164 22 107 58
    180 122 244 109 109 235 149 435 139 52 -2 113 -9 135 -15z m6219 -553 c64
    -29 95 -57 132 -120 22 -39 26 -57 27 -128 0 -67 -4 -89 -22 -122 -57 -101
    -136 -149 -246 -148 -82 0 -128 18 -185 70 -37 33 -47 49 -79 126 -17 43 -13
    120 10 174 62 146 224 212 363 148z m-4467 -4 c52 -11 134 -24 253 -41 41 -6
    100 -15 130 -20 30 -5 89 -14 130 -20 41 -6 100 -15 130 -20 30 -5 87 -14 125
    -20 131 -21 190 -31 230 -40 22 -5 67 -14 100 -20 33 -7 74 -16 90 -20 17 -4
    56 -13 88 -20 31 -7 57 -16 57 -20 0 -6 -61 -27 -285 -99 -58 -18 -97 -26
    -110 -21 -11 4 -40 14 -65 21 -25 7 -49 15 -55 19 -5 3 -44 17 -85 29 -41 13
    -83 27 -92 32 -10 5 -25 9 -33 9 -8 0 -23 4 -33 10 -9 5 -37 16 -62 24 -25 8
    -83 29 -130 46 -47 18 -96 36 -110 40 -39 13 -240 86 -292 106 -27 10 -48 22
    -48 26 0 10 8 10 67 -1z m4118 -522 c10 -15 -22 -77 -48 -93 -32 -19 -131 -40
    -158 -33 -90 22 -159 43 -159 48 0 3 24 11 53 18 28 6 68 16 87 21 208 54 215
    56 225 39z"/>
    <path d="M15760 9424 c-37 -32 -60 -73 -60 -110 0 -63 80 -145 141 -144 74 2
    139 72 139 151 0 44 -4 53 -40 89 -37 37 -44 40 -94 40 -44 0 -60 -5 -86 -26z"/>
    <path d="M13510 9307 c-36 -18 -153 -85 -260 -147 -107 -62 -210 -121 -227
    -131 -18 -11 -49 -28 -68 -39 -44 -25 -64 -37 -260 -150 -88 -51 -189 -110
    -225 -130 -193 -110 -450 -259 -481 -280 -52 -34 -74 -81 -73 -154 0 -43 6
    -71 21 -96 11 -19 79 -136 150 -260 72 -124 181 -313 243 -420 62 -107 126
    -220 143 -250 17 -30 43 -74 59 -97 15 -23 28 -44 28 -46 0 -4 116 -207 203
    -357 11 -19 26 -47 34 -62 26 -51 84 -97 130 -104 68 -10 104 2 235 78 68 39
    138 79 156 89 17 11 47 28 66 38 18 11 64 38 101 60 81 49 100 52 91 14 -22
    -102 -26 -133 -20 -168 11 -72 67 -131 139 -146 17 -4 55 -12 85 -19 68 -15
    120 -26 185 -39 28 -6 115 -24 195 -42 190 -41 216 -46 275 -59 28 -5 70 -14
    95 -20 25 -6 68 -14 95 -20 28 -5 93 -19 145 -31 52 -11 118 -26 145 -31 28
    -5 68 -14 90 -18 22 -5 63 -14 90 -20 28 -5 70 -14 95 -20 25 -6 61 -13 80
    -16 19 -4 40 -11 47 -16 11 -9 7 -36 -6 -48 -10 -8 -42 -64 -48 -82 -3 -10 -9
    -18 -14 -18 -5 0 -9 -5 -9 -11 0 -6 -13 -30 -30 -54 -16 -24 -30 -47 -30 -50
    0 -4 -8 -19 -19 -33 -10 -15 -29 -45 -42 -68 -13 -22 -70 -118 -127 -212
    l-103 -172 -1029 0 -1028 0 -47 78 c-26 42 -55 91 -65 107 -9 17 -72 122 -140
    235 -68 113 -132 221 -143 240 -10 19 -28 47 -38 62 -11 14 -19 29 -19 33 0 3
    -13 26 -30 50 -16 24 -30 46 -30 49 0 4 -15 29 -32 56 l-33 50 -902 0 c-898 0
    -902 0 -913 -20 -13 -25 -14 -25 110 -230 51 -85 101 -168 110 -185 10 -16 50
    -83 89 -147 39 -65 71 -122 71 -128 0 -5 5 -10 10 -10 6 0 10 -4 10 -9 0 -5
    41 -76 90 -158 l90 -150 0 -1661 0 -1662 900 0 900 0 2 1652 3 1653 1840 0
    1840 0 3 -1565 c1 -861 0 -1575 -3 -1586 -3 -14 -25 -31 -57 -48 -194 -95
    -328 -317 -328 -541 0 -159 61 -303 180 -425 121 -123 256 -179 435 -180 341
    0 605 267 605 613 0 159 -56 300 -164 410 -73 75 -88 86 -157 124 -100 54
    -206 77 -324 71 l-95 -5 0 1606 c0 1578 1 1606 20 1631 11 14 20 31 20 38 0 6
    5 12 10 12 6 0 10 5 10 11 0 6 8 23 19 37 10 15 28 43 38 62 11 19 43 72 72
    118 28 46 51 86 51 89 0 3 8 17 19 31 10 15 28 43 39 62 11 19 55 94 99 166
    93 153 96 159 83 185 -10 18 -28 19 -585 19 -315 0 -576 3 -579 8 -4 7 -1 25
    24 145 6 26 14 68 20 95 5 26 14 67 20 92 6 25 15 68 20 95 5 28 14 70 20 95
    6 25 15 66 20 93 6 26 14 68 20 95 5 26 14 67 20 92 6 25 14 68 20 95 5 28 19
    93 30 145 12 52 25 115 30 140 5 25 18 86 29 135 29 132 80 373 92 430 5 28
    14 68 18 90 28 129 31 154 25 194 -7 47 -49 103 -93 125 -14 7 -53 18 -86 25
    -33 8 -73 17 -90 21 -16 4 -57 13 -90 20 -33 6 -78 16 -100 20 -22 5 -62 14
    -90 19 -27 6 -81 18 -119 27 -38 8 -92 20 -120 25 -55 11 -73 14 -236 49 -58
    12 -123 26 -145 31 -22 4 -83 17 -135 28 -52 12 -115 25 -140 31 -25 5 -88 19
    -140 30 -52 12 -117 25 -145 31 -27 5 -68 13 -90 18 -84 19 -152 33 -190 41
    -22 4 -65 13 -95 19 -70 15 -125 6 -173 -26 -20 -14 -39 -24 -41 -22 -2 2 -18
    29 -36 59 -36 60 -35 58 -143 245 -88 153 -120 184 -198 191 -48 5 -62 2 -119
    -29z m139 -80 c13 -6 34 -30 46 -52 12 -22 55 -96 95 -165 100 -172 107 -185
    131 -227 11 -21 25 -42 30 -47 12 -13 12 -69 0 -115 -5 -20 -15 -63 -21 -96
    -7 -33 -16 -73 -20 -90 -4 -16 -13 -57 -20 -90 -6 -33 -16 -78 -20 -100 -5
    -22 -15 -66 -21 -97 -7 -32 -16 -58 -20 -58 -7 0 -35 49 -148 260 -39 73 -41
    75 -78 75 -34 0 -38 -3 -41 -27 -3 -27 9 -51 146 -308 19 -36 47 -82 63 -102
    34 -43 34 -49 14 -143 -9 -39 -20 -90 -25 -115 -20 -93 -51 -237 -60 -285 -6
    -27 -14 -68 -19 -90 -31 -136 -47 -214 -57 -277 -5 -31 -14 -42 -48 -61 -69
    -40 -429 -248 -461 -267 -103 -60 -123 -70 -145 -70 -14 0 -35 7 -46 14 -18
    13 -103 149 -197 316 -14 25 -65 115 -115 200 -240 414 -277 479 -305 530 -17
    30 -48 84 -69 119 -21 34 -38 65 -38 67 0 2 -26 48 -58 101 -103 173 -132 229
    -132 257 0 32 36 70 96 102 45 24 64 35 234 134 69 40 150 86 180 103 30 16
    66 38 80 47 14 9 50 31 80 47 45 25 325 186 480 276 19 11 53 30 75 41 22 12
    44 25 50 29 31 26 303 176 320 176 11 1 31 -5 44 -12z m613 -448 c57 -12 119
    -25 138 -29 19 -4 71 -15 115 -24 44 -9 96 -20 115 -25 19 -5 62 -15 95 -21
    33 -6 76 -15 95 -20 33 -8 80 -18 188 -40 26 -5 88 -18 137 -29 50 -11 106
    -22 125 -26 19 -4 51 -11 70 -15 19 -4 82 -18 140 -30 58 -12 123 -26 145 -31
    22 -5 63 -14 90 -19 28 -5 68 -14 90 -19 22 -5 56 -12 75 -16 19 -3 51 -10 70
    -15 19 -4 60 -13 90 -20 150 -31 166 -38 181 -78 9 -23 4 -61 -22 -177 -5 -22
    -13 -62 -19 -90 -5 -27 -19 -93 -30 -145 -12 -52 -25 -115 -30 -140 -6 -25
    -19 -85 -29 -135 -10 -49 -29 -137 -41 -195 -12 -58 -26 -123 -31 -145 -5 -22
    -14 -62 -19 -90 -5 -27 -14 -70 -20 -95 -6 -25 -15 -67 -20 -95 -5 -27 -14
    -68 -19 -90 -19 -84 -33 -152 -41 -190 -4 -22 -13 -65 -20 -95 -14 -64 -27
    -126 -40 -190 -17 -90 -30 -142 -35 -151 -4 -5 -96 -9 -215 -9 -212 0 -214 0
    -437 50 -46 11 -96 21 -183 40 -30 6 -73 15 -95 20 -22 4 -65 13 -95 20 -30 6
    -74 15 -97 20 -80 18 -128 28 -188 40 -33 6 -76 15 -95 20 -19 4 -60 13 -90
    20 -30 6 -73 15 -95 20 -22 4 -67 14 -100 20 -33 7 -73 16 -90 20 -16 4 -57
    13 -90 20 -191 38 -244 53 -263 73 -19 21 -21 92 -4 149 5 18 15 60 22 93 6
    33 16 80 22 105 5 25 13 63 18 85 8 41 22 106 40 193 5 26 18 85 29 132 10 47
    24 112 30 145 7 33 17 78 21 100 5 22 14 65 20 95 7 30 16 71 20 90 5 19 14
    62 20 95 13 68 24 120 39 185 5 25 15 70 21 100 7 30 16 73 20 95 5 22 14 65
    20 95 7 30 16 71 20 90 4 19 13 60 20 90 30 147 38 166 75 180 28 12 22 12
    137 -11z m-1811 -2888 c137 -228 249 -416 249 -418 0 -1 -364 -3 -809 -3
    l-810 0 -20 29 c-12 16 -21 31 -21 33 0 3 -49 87 -110 188 -60 100 -110 185
    -110 187 0 2 -18 31 -40 63 -22 32 -40 61 -40 63 0 3 -36 64 -80 137 -44 73
    -80 134 -80 136 0 2 365 3 811 2 l812 -3 248 -414z m4481 293 c4 -3 -17 -42
    -44 -87 -28 -45 -58 -95 -68 -112 -10 -16 -41 -68 -70 -115 -48 -78 -64 -104
    -102 -171 -7 -13 -15 -26 -18 -29 -10 -10 -41 -65 -47 -82 -3 -10 -9 -18 -14
    -18 -5 0 -9 -5 -9 -10 0 -6 -12 -28 -26 -50 l-27 -40 -739 0 -739 0 7 23 c3
    12 15 34 25 49 11 14 19 28 19 31 0 6 62 109 70 117 5 5 10 13 52 89 11 20 29
    48 39 63 11 14 19 29 19 33 0 3 14 26 30 50 17 24 30 48 30 54 0 6 4 11 9 11
    5 0 11 8 14 18 6 18 38 73 47 82 3 3 18 26 33 53 l28 47 738 0 c406 0 740 -3
    743 -6z m-107 -4056 c2 -2 -2 -35 -10 -73 -32 -152 -8 -298 73 -443 46 -83
    171 -194 260 -233 17 -8 32 -18 32 -22 0 -17 -44 -72 -94 -120 -99 -93 -276
    -155 -396 -138 l-45 6 3 40 c13 201 13 243 -3 305 -42 163 -160 318 -295 389
    -36 19 -67 35 -69 37 -7 6 44 71 96 121 63 61 174 119 253 132 52 9 186 9 195
    -1z m160 -54 c96 -52 194 -166 238 -278 16 -40 20 -76 21 -171 1 -144 -12
    -190 -52 -180 -74 18 -207 145 -256 243 -43 87 -59 169 -54 273 5 89 19 139
    40 139 7 0 36 -12 63 -26z m-676 -301 c111 -53 222 -195 257 -328 24 -89 12
    -315 -17 -315 -4 0 -34 14 -66 32 -109 60 -197 162 -243 283 -18 47 -23 82
    -24 160 -1 89 16 195 32 195 3 0 30 -12 61 -27z"/>
    <path d="M13291 8441 c-25 -16 -14 -58 39 -157 29 -54 87 -166 130 -248 157
    -304 167 -320 195 -331 23 -8 30 -6 45 13 22 27 25 18 -68 197 -181 350 -260
    498 -275 516 -18 20 -43 24 -66 10z"/>
    <path d="M12859 8206 c-12 -26 -6 -39 111 -261 69 -131 214 -410 225 -433 19
    -42 80 -40 91 3 6 22 -39 116 -171 360 -18 33 -67 125 -108 205 -70 136 -77
    145 -106 148 -25 3 -33 -2 -42 -22z"/>
    <path d="M13153 8193 c-27 -10 -12 -67 43 -172 162 -305 152 -291 191 -291 27
    0 47 33 39 64 -3 12 -36 78 -73 146 -38 69 -79 147 -93 173 -41 79 -66 97
    -107 80z"/>
    <path d="M12718 7954 c-11 -23 -9 -33 16 -78 15 -28 55 -103 88 -166 103 -193
    104 -195 131 -198 33 -4 60 24 52 55 -3 14 -40 88 -82 166 -140 262 -129 247
    -171 247 -15 0 -27 -9 -34 -26z"/>
    <path d="M14740 7977 c-15 -11 -34 -63 -43 -117 -5 -27 -43 -208 -58 -275 -5
    -22 -13 -62 -19 -90 -5 -27 -19 -90 -30 -140 -46 -207 -47 -232 -6 -254 24
    -13 52 -6 211 49 28 10 138 46 245 80 310 100 327 106 354 124 18 11 26 25 26
    45 0 29 -31 62 -210 221 -47 41 -87 77 -90 80 -3 3 -48 43 -100 90 -52 47
    -102 92 -110 100 -51 52 -116 100 -134 100 -12 0 -28 -6 -36 -13z m98 -155
    c15 -15 65 -61 111 -102 47 -41 101 -90 120 -108 20 -19 63 -57 95 -85 79 -70
    106 -96 106 -106 0 -10 -46 -31 -70 -31 -10 0 -22 -4 -25 -10 -3 -5 -14 -10
    -24 -10 -10 0 -40 -9 -67 -19 -59 -22 -347 -116 -386 -125 -19 -4 -28 -2 -27
    6 1 24 36 201 69 348 4 19 17 80 28 135 21 103 31 135 39 135 3 0 17 -12 31
    -28z"/>
    <path d="M10738 8290 c-137 -52 -213 -131 -268 -277 -7 -19 -11 -70 -8 -130 3
    -85 7 -106 34 -163 51 -103 119 -167 227 -210 46 -18 77 -23 150 -23 84 0 99
    3 167 35 92 43 154 103 200 195 31 60 35 78 38 161 3 78 0 104 -18 155 -48
    131 -134 214 -271 261 -60 21 -191 19 -251 -4z"/>
    <path d="M18055 6870 c-56 -17 -100 -73 -144 -183 -6 -15 -11 -72 -11 -126 0
    -184 58 -274 300 -470 94 -77 233 -219 272 -279 81 -125 103 -239 78 -401 -6
    -36 -15 -97 -21 -136 -5 -38 -14 -92 -19 -120 -5 -27 -14 -81 -20 -120 -6 -38
    -15 -96 -20 -127 -6 -32 -14 -85 -20 -118 -24 -144 -31 -188 -40 -235 -5 -27
    -14 -81 -20 -120 -6 -38 -15 -95 -20 -125 -12 -70 -39 -228 -50 -300 -5 -30
    -14 -82 -20 -115 -76 -414 -108 -707 -117 -1065 -9 -403 24 -725 117 -1120 25
    -107 73 -272 91 -315 24 -59 21 -78 -24 -138 -41 -55 -74 -138 -62 -158 4 -5
    48 -9 98 -9 81 0 94 -2 105 -20 14 -24 45 -26 62 -5 14 17 14 19 -30 135 -18
    47 -48 135 -67 195 -20 61 -39 119 -43 130 -4 11 -12 38 -18 60 -24 93 -31
    123 -42 170 -6 28 -15 66 -20 85 -11 47 -27 131 -39 210 -46 299 -54 433 -47
    775 3 165 10 338 15 385 24 221 52 417 101 695 9 50 21 117 40 233 10 65 23
    139 40 245 6 34 15 89 20 122 6 33 14 85 20 115 5 30 14 83 20 118 5 34 14 88
    20 120 5 31 14 85 20 120 5 34 15 90 20 125 56 334 68 457 50 535 -37 160
    -132 299 -300 442 -36 30 -67 57 -70 60 -3 3 -34 30 -70 60 -99 83 -148 139
    -180 206 -17 34 -30 67 -30 73 0 7 31 11 91 11 51 0 110 5 133 11 98 26 123
    34 161 52 22 10 54 33 72 49 l31 30 34 -23 c18 -13 43 -33 54 -45 12 -11 44
    -38 70 -60 27 -21 51 -41 54 -44 12 -12 108 -67 150 -86 45 -20 89 -31 225
    -55 88 -15 171 -42 255 -82 70 -34 157 -85 178 -104 7 -7 26 -20 42 -30 54
    -31 245 -237 307 -328 70 -105 109 -180 151 -290 69 -182 96 -317 91 -467 -4
    -93 -7 -110 -25 -128 l-20 -21 -42 22 c-48 26 -162 133 -242 229 -30 36 -57
    67 -60 70 -3 3 -17 21 -30 40 -13 19 -27 37 -31 40 -14 10 -115 187 -144 253
    -32 72 -45 83 -77 66 -15 -8 -19 -17 -14 -39 6 -35 39 -107 82 -180 l32 -55
    -5 -168 c-14 -414 70 -808 241 -1137 42 -82 171 -280 208 -320 13 -14 45 -51
    71 -82 27 -32 200 -210 385 -395 331 -332 378 -382 479 -514 134 -174 261
    -439 294 -614 64 -341 49 -568 -58 -894 -36 -111 -36 -141 2 -141 20 0 29 11
    50 55 14 31 25 62 25 69 0 7 6 29 14 47 13 31 32 108 56 219 45 219 32 509
    -35 740 -73 250 -209 489 -406 713 -34 40 -200 210 -368 378 -358 357 -421
    426 -523 570 -228 318 -358 758 -358 1207 0 75 4 132 9 132 5 0 19 -12 31 -27
    120 -153 275 -304 349 -339 49 -24 116 -14 144 20 94 117 42 506 -108 807 -94
    188 -241 374 -393 496 -26 21 -49 40 -52 43 -5 5 -68 46 -112 73 -57 35 -95
    54 -153 76 -33 13 -69 27 -80 31 -25 10 -93 26 -170 40 -119 22 -160 33 -219
    64 -34 16 -62 34 -64 38 -2 4 -9 8 -15 8 -7 0 -33 19 -58 43 -25 23 -65 58
    -89 77 -24 19 -48 40 -54 45 -59 55 -185 129 -296 173 -64 25 -152 35 -195 22z"/>
    <path d="M19113 6130 c-29 -17 -33 -25 -33 -60 0 -35 4 -43 32 -60 55 -33 108
    -3 108 61 0 29 -6 42 -26 58 -33 26 -41 26 -81 1z"/>
    <path d="M18732 2998 c-18 -18 -16 -394 3 -533 28 -203 49 -316 84 -435 5 -19
    14 -51 19 -70 19 -69 64 -193 108 -298 45 -104 147 -307 165 -326 14 -15 11
    -52 -6 -66 -23 -19 -65 -116 -65 -150 l0 -30 118 0 c106 0 118 -2 130 -20 21
    -34 73 -19 72 19 -1 9 -22 44 -48 78 -108 142 -256 419 -331 618 -12 33 -27
    68 -32 77 -5 10 -9 27 -9 37 0 11 -4 22 -9 25 -5 3 -11 18 -14 33 -3 16 -11
    46 -17 68 -71 247 -100 463 -101 745 0 134 -4 219 -11 227 -13 16 -40 17 -56
    1z"/>
    <path d="M19412 2628 c-32 -32 -2 -401 47 -578 6 -19 14 -51 19 -70 46 -174
    181 -451 296 -605 69 -92 68 -89 48 -111 -28 -31 -62 -113 -62 -149 l0 -25
    129 0 c113 0 131 -2 154 -20 29 -23 48 -25 65 -8 22 22 13 39 -57 109 -39 38
    -100 106 -136 151 -36 46 -73 92 -82 103 -27 32 -112 174 -149 247 -38 74
    -112 256 -124 303 -5 17 -15 55 -23 85 -8 30 -20 87 -27 125 -7 39 -16 92 -21
    118 -5 26 -9 108 -9 180 0 136 -5 157 -40 157 -9 0 -21 -5 -28 -12z"/>
  </g>
</svg>
