<svg version="1.0" xmlns="http://www.w3.org/2000/svg"
 width="778.000000pt" height="496.000000pt" viewBox="0 0 778.000000 496.000000"
 preserveAspectRatio="xMidYMid meet">
  <g transform="translate(0.000000,496.000000) scale(0.100000,-0.100000)"
  fill="#000000" stroke="none">
    <path d="M165 4886 c-41 -18 -83 -69 -90 -109 -3 -18 -4 -1063 -3 -2324 l3
    -2292 21 -27 c11 -15 33 -37 48 -48 l27 -21 3739 0 3739 0 27 21 c15 11 37 33
    48 48 l21 27 0 2319 0 2319 -21 27 c-11 15 -33 37 -48 48 l-27 21 -3727 2
    c-3083 2 -3732 0 -3757 -11z m7469 -46 c14 -5 35 -24 46 -42 20 -33 20 -48 17
    -2330 l-2 -2298 -28 -27 -27 -28 -3730 0 -3730 0 -27 28 -28 27 0 2309 c0
    2295 0 2309 20 2331 11 12 29 26 40 31 29 12 7418 11 7449 -1z"/>
    <path d="M3642 2787 l-172 -100 2 -215 3 -214 180 -104 179 -103 66 36 c36 20
    117 67 180 103 l115 67 3 216 2 215 -174 101 c-97 55 -183 101 -193 100 -10 0
    -96 -46 -191 -102z m168 -134 l0 -168 -103 -57 c-56 -32 -121 -69 -144 -83
    l-43 -26 0 169 0 170 138 80 c75 45 140 81 145 81 4 1 7 -74 7 -166z m200 88
    c97 -57 137 -85 141 -102 4 -13 7 -88 8 -166 1 -108 -2 -143 -11 -143 -7 0
    -74 35 -148 78 l-135 78 -3 167 c-1 92 1 167 5 167 5 0 69 -36 143 -79z m-25
    -383 l143 -82 -88 -52 c-49 -28 -115 -66 -147 -84 l-58 -32 -139 79 c-76 44
    -138 84 -138 89 -1 9 259 163 276 164 5 0 73 -37 151 -82z"/>
  </g>
</svg>
