<svg version="1.0" xmlns="http://www.w3.org/2000/svg"
 width="774.000000pt" height="494.000000pt" viewBox="0 0 774.000000 494.000000"
 preserveAspectRatio="xMidYMid meet">
  <g transform="translate(0.000000,494.000000) scale(0.100000,-0.100000)"
  fill="#000000" stroke="none">
    <path d="M125 4866 c-41 -18 -83 -69 -90 -109 -3 -18 -4 -1063 -3 -2324 l3
    -2292 21 -27 c11 -15 33 -37 48 -48 l27 -21 3739 0 3739 0 27 21 c15 11 37 33
    48 48 l21 27 0 2319 0 2319 -21 27 c-11 15 -33 37 -48 48 l-27 21 -3727 2
    c-3083 2 -3732 0 -3757 -11z m7469 -46 c14 -5 35 -24 46 -42 20 -33 20 -52 20
    -2315 0 -1458 -4 -2291 -10 -2307 -5 -14 -24 -35 -42 -46 -33 -20 -53 -20
    -3736 -20 -3290 0 -3706 2 -3732 15 -65 33 -60 -152 -60 2354 0 1457 4 2289
    10 2305 5 14 24 35 42 46 33 20 53 20 3735 20 2381 0 3711 -3 3727 -10z"/>
    <path d="M3270 3381 c-85 -49 -165 -97 -177 -106 -22 -15 -23 -22 -25 -212
    l-3 -197 -125 -72 c-69 -40 -144 -85 -167 -98 l-43 -26 0 -213 0 -213 170 -99
    170 -98 0 -198 0 -197 143 -83 c78 -45 160 -92 182 -105 l41 -24 164 95 c91
    52 171 95 178 95 8 0 88 -43 179 -95 l166 -95 183 106 184 106 0 198 0 198
    170 98 170 98 0 216 -1 215 -175 100 -175 100 2 195 3 195 -80 48 c-154 93
    -275 158 -287 155 -7 -2 -85 -45 -174 -96 l-162 -93 -166 96 c-92 52 -172 95
    -178 95 -7 0 -82 -40 -167 -89z m264 -19 c44 -27 118 -70 164 -96 l82 -48 164
    96 c91 53 170 96 177 96 12 0 246 -130 277 -153 13 -10 -60 -58 -225 -149 -46
    -25 -73 -46 -73 -57 0 -11 52 -46 155 -106 133 -77 153 -91 139 -102 -35 -26
    -262 -153 -272 -153 -7 0 -60 29 -119 63 -217 128 -220 129 -245 116 -13 -7
    -87 -50 -166 -95 -79 -46 -148 -84 -154 -84 -11 0 -237 127 -271 152 -16 12
    -3 22 120 92 150 86 173 102 173 122 0 7 -70 52 -155 101 -119 68 -152 90
    -142 99 20 20 261 154 276 154 7 0 50 -22 95 -48z m-383 -172 c17 -10 19 -22
    19 -139 0 -127 0 -128 -25 -139 l-25 -12 0 150 c0 83 3 150 6 150 3 0 14 -5
    25 -10z m109 -137 c0 -63 -3 -74 -22 -87 -12 -9 -26 -16 -30 -16 -5 0 -8 48
    -8 106 l0 105 30 -18 c29 -17 30 -20 30 -90z m80 -1 c0 -22 -23 -51 -42 -52
    -5 0 -8 25 -8 55 l0 55 25 -16 c16 -10 25 -26 25 -42z m-272 -471 l-3 -80 -55
    33 c-30 19 -90 53 -132 78 l-78 44 133 76 132 75 3 -73 c2 -40 2 -109 0 -153z
    m102 -362 c0 -308 -4 -559 -8 -559 -5 0 -15 6 -24 13 -13 10 -17 55 -22 298
    -3 158 -3 410 1 562 l6 275 24 -15 23 -15 0 -559z m663 577 c15 -12 17 -33 17
    -180 0 -91 -2 -166 -5 -166 -3 0 -17 7 -30 16 -25 16 -25 17 -25 180 0 171 3
    180 43 150z m620 -355 c10 -8 48 10 153 70 76 44 147 85 157 90 16 9 17 -1 17
    -160 l0 -169 -112 -65 c-62 -35 -139 -80 -170 -98 l-58 -33 0 -198 0 -197 -72
    -42 c-40 -23 -106 -62 -145 -85 l-73 -44 0 186 c0 154 -2 186 -15 190 -8 4
    -79 -31 -164 -80 -82 -47 -153 -86 -159 -86 -6 0 -10 62 -11 158 -2 141 0 160
    16 173 10 9 77 49 148 89 72 40 142 82 158 92 l27 19 0 197 0 197 143 81 142
    80 3 -177 c2 -130 6 -180 15 -188z m206 272 c46 -26 83 -52 82 -58 -1 -10
    -227 -145 -242 -145 -5 0 -9 68 -9 150 l0 151 43 -25 c23 -13 80 -46 126 -73z
    m-1434 35 l25 -11 0 -564 c0 -309 -3 -563 -8 -563 -4 0 -17 7 -29 15 l-22 15
    0 560 c-1 308 1 560 4 560 2 0 16 -5 30 -12z m693 -4 c21 -15 22 -21 22 -180
    0 -90 -3 -164 -8 -164 -4 0 -18 7 -30 16 -21 15 -22 21 -22 180 0 90 3 164 8
    164 4 0 18 -7 30 -16z m-600 -50 l22 -15 0 -560 c0 -307 -2 -559 -5 -559 -2 0
    -16 5 -30 12 l-25 11 0 564 c0 309 3 563 8 563 4 0 18 -7 30 -16z m683 6 c18
    -10 19 -23 19 -180 l0 -170 -25 12 -25 11 0 169 c0 92 3 168 6 168 3 0 14 -5
    25 -10z m-601 -55 c10 -12 13 -134 13 -565 1 -302 -2 -552 -5 -555 -3 -3 -13
    -3 -22 1 -15 6 -16 56 -16 570 0 317 4 564 9 564 5 0 14 -7 21 -15z m688 3
    c12 -12 18 -338 6 -338 -3 0 -14 5 -25 10 -18 10 -19 23 -19 175 0 168 5 186
    38 153z m-1268 -231 c0 -165 0 -168 -20 -157 -19 10 -20 21 -20 180 0 168 0
    170 20 158 19 -12 20 -24 20 -181z m90 -49 l0 -169 -30 16 -30 16 0 170 0 170
    30 -18 30 -17 0 -168z m61 132 c18 -10 19 -23 19 -181 l0 -169 -25 16 c-25 16
    -25 16 -25 180 0 90 3 164 6 164 3 0 14 -5 25 -10z m92 -54 c15 -12 17 -33 17
    -180 l0 -167 -30 16 -30 16 0 164 c0 172 3 181 43 151z m864 -101 c78 -44 142
    -82 142 -85 0 -3 -65 -42 -145 -86 l-146 -82 -144 82 c-79 44 -143 83 -143 86
    0 6 282 169 289 167 3 -1 69 -38 147 -82z m-417 -320 c0 -91 -2 -165 -5 -165
    -2 0 -16 5 -30 12 l-25 11 0 169 0 169 30 -16 30 -16 0 -164z m80 -47 c0 -92
    -3 -168 -6 -168 -3 0 -14 5 -25 10 -18 10 -19 23 -19 180 l0 170 25 -12 25
    -11 0 -169z m65 126 c25 -16 25 -17 25 -180 0 -90 -3 -164 -8 -164 -4 0 -18 7
    -30 16 -21 15 -22 21 -22 180 0 90 2 164 5 164 3 0 17 -7 30 -16z m95 -219 c0
    -91 -2 -165 -4 -165 -2 0 -11 3 -20 6 -14 5 -16 30 -16 175 0 167 0 170 20
    159 19 -10 20 -21 20 -175z m-123 -160 l102 -59 -102 -59 c-56 -32 -117 -68
    -134 -79 l-33 -20 0 157 0 157 33 -19 c17 -10 78 -45 134 -78z m469 -202 c-2
    -3 -14 0 -25 7 -20 10 -21 19 -21 139 0 123 1 128 23 138 l22 10 3 -145 c1
    -80 1 -147 -2 -149z m-76 142 c0 -58 -3 -105 -7 -105 -5 0 -16 7 -25 14 -15
    11 -18 29 -18 94 0 67 3 83 18 91 9 6 20 11 25 11 4 0 7 -47 7 -105z m-80 0
    c0 -30 -2 -55 -5 -55 -2 0 -16 5 -30 12 -44 20 -26 96 23 98 8 0 12 -17 12
    -55z"/>
  </g>
</svg>
